<svg width="34" height="32" viewBox="0 0 34 32" fill="none" xmlns="http://www.w3.org/2000/svg">
<path d="M12.4246 19.4362C12.4179 19.3971 12.4047 19.3515 12.3847 19.3124C12.3648 19.2732 12.3449 19.2341 12.325 19.2015C12.2984 19.1689 12.2719 19.1298 12.2386 19.1037C12.0859 18.9538 11.8535 18.882 11.641 18.9277C11.6011 18.9342 11.5547 18.9472 11.5148 18.9668C11.475 18.9864 11.4351 19.0059 11.4019 19.0255C11.3621 19.0516 11.3289 19.0776 11.3023 19.1037C11.2758 19.1298 11.2426 19.1689 11.2226 19.2015C11.1961 19.2341 11.1761 19.2732 11.1629 19.3124C11.1429 19.3515 11.1363 19.3906 11.123 19.4362C11.1097 19.4819 11.1097 19.521 11.1097 19.5666C11.1097 19.6057 11.1164 19.6514 11.123 19.697C11.1297 19.7361 11.1429 19.7818 11.1629 19.8209C11.1828 19.86 11.2027 19.8991 11.2226 19.9317C11.2492 19.9643 11.2758 20.0035 11.3023 20.0295C11.3289 20.0556 11.3687 20.0882 11.4019 20.1143C11.4351 20.1404 11.475 20.1599 11.5148 20.173C11.5547 20.1925 11.5945 20.1991 11.641 20.2121C11.6875 20.2251 11.7273 20.2251 11.7672 20.2251C11.9398 20.2251 12.1125 20.1534 12.2386 20.0361C12.2719 20.0035 12.2984 19.9709 12.325 19.9383C12.3515 19.9057 12.3715 19.8665 12.3847 19.8274C12.4047 19.7883 12.4113 19.7492 12.4246 19.7035C12.4312 19.6644 12.4379 19.6188 12.4379 19.5731C12.4379 19.5275 12.4312 19.4754 12.4246 19.4362Z" fill="#FA5356"/>
<path d="M33.3359 30.696H31.9613V23.7196V20.8639C31.9613 19.7881 31.0715 18.9144 29.9758 18.9144H28.8402V14.9698V12.4857C28.8402 11.4099 27.9504 10.5363 26.8547 10.5363H24.816V8.64548C25.2742 8.53464 25.7059 8.29992 26.0578 7.95436C26.8746 7.1524 27.0805 5.92665 26.5691 4.90954L24.7496 1.28443C24.6367 1.06275 24.4043 0.919315 24.152 0.919315C23.8996 0.919315 23.6672 1.06275 23.5543 1.28443L21.7348 4.90954C21.2234 5.92665 21.4293 7.1524 22.2461 7.95436C22.6047 8.30644 23.0363 8.53464 23.4879 8.64548V10.5363H17.6641V7.73268C18.1223 7.62184 18.5539 7.38712 18.9059 7.04156C19.7227 6.23961 19.9285 5.01385 19.4172 3.99674L17.5977 0.365118C17.4848 0.143439 17.2523 0 17 0C16.7477 0 16.5152 0.143439 16.4023 0.365118L14.5828 3.99022C14.0715 5.00734 14.2773 6.23309 15.0941 7.03504C15.4527 7.38712 15.8844 7.61532 16.3359 7.72616V10.5297H10.5187V8.63896C10.9836 8.5216 11.4152 8.28688 11.7605 7.94132C12.5773 7.13936 12.7832 5.91361 12.2719 4.8965L10.4523 1.27139C10.3395 1.04971 10.107 0.906275 9.85469 0.906275C9.60234 0.906275 9.36992 1.04971 9.25703 1.27139L7.4375 4.8965C6.92617 5.91361 7.13203 7.13936 7.94883 7.94132C8.30078 8.28688 8.72578 8.5216 9.19062 8.63896V10.5297H7.15195C6.05625 10.5297 5.16641 11.4034 5.16641 12.4792V14.9633V18.9079H4.02422C2.92852 18.9079 2.03867 19.7816 2.03867 20.8574V23.7196V30.6895H0.664062C0.298828 30.6895 0 30.9829 0 31.3415C0 31.7001 0.298828 31.9935 0.664062 31.9935H2.70273H31.2973H33.3359C33.7012 31.9935 34 31.7001 34 31.3415C34 30.9829 33.7012 30.696 33.3359 30.696ZM23.1824 7.022C22.7707 6.61777 22.6645 5.99185 22.9234 5.47677L24.152 3.0383L25.3738 5.47677C25.6328 5.99185 25.5266 6.61125 25.1148 7.022C25.0219 7.11328 24.9223 7.185 24.8094 7.24368C24.3977 7.46536 23.893 7.46536 23.4813 7.24368C23.375 7.185 23.2754 7.10676 23.1824 7.022ZM16.0305 6.10921C15.6187 5.70497 15.5125 5.07905 15.7715 4.56398L17 2.12551L18.2285 4.56398C18.4875 5.07905 18.3813 5.69845 17.9695 6.10921C17.8766 6.20049 17.777 6.27221 17.6641 6.33089C17.2523 6.55257 16.7477 6.55257 16.3359 6.33089C16.2297 6.27221 16.1234 6.20049 16.0305 6.10921ZM8.88516 7.022C8.47344 6.61777 8.36719 5.99185 8.62617 5.47677L9.85469 3.0383L11.0766 5.47677C11.3355 5.99185 11.2293 6.61125 10.8176 7.022C10.7246 7.11328 10.625 7.185 10.5121 7.24368C10.1004 7.46536 9.5957 7.46536 9.18398 7.24368C9.07773 7.185 8.97813 7.10676 8.88516 7.022ZM7.15195 11.8337H26.8547C27.2199 11.8337 27.5121 12.1271 27.5121 12.4792V14.5265C27.2199 14.6178 26.9012 14.6569 26.5293 14.6569C25.5398 14.6569 25.0883 14.3635 24.5172 13.9853C23.8797 13.5681 23.1559 13.0986 21.768 13.0986C20.3734 13.0986 19.6562 13.5681 19.0187 13.9853C18.4477 14.357 17.9961 14.6569 17.0066 14.6569C16.0172 14.6569 15.5656 14.3635 14.9945 13.9853C14.357 13.5681 13.6332 13.0986 12.2453 13.0986C10.8508 13.0986 10.1336 13.5681 9.49609 13.9853C8.925 14.357 8.47344 14.6569 7.48398 14.6569C7.11211 14.6569 6.8 14.6178 6.50117 14.5265V12.4792C6.48789 12.1206 6.78672 11.8337 7.15195 11.8337ZM30.6332 30.696H3.3668V24.4303C3.93125 24.5346 4.28984 24.7694 4.71484 25.0432C5.35234 25.4605 6.07617 25.9299 7.46406 25.9299C8.85859 25.9299 9.57578 25.4605 10.2133 25.0432C10.7844 24.6716 11.2359 24.3716 12.2254 24.3716C13.2148 24.3716 13.6664 24.665 14.2375 25.0432C14.875 25.4605 15.5988 25.9299 16.9867 25.9299C18.3813 25.9299 19.0984 25.4605 19.7359 25.0432C20.307 24.6716 20.7586 24.3716 21.748 24.3716C22.7375 24.3716 23.1891 24.665 23.7602 25.0432C24.3977 25.4605 25.1215 25.9299 26.5094 25.9299C27.9039 25.9299 28.6211 25.4605 29.2586 25.0432C29.6836 24.7628 30.0422 24.5281 30.6066 24.4303V30.696H30.6332ZM30.6332 23.1068C29.657 23.2306 29.0727 23.6088 28.548 23.9544C27.977 24.326 27.5254 24.6259 26.5359 24.6259C25.5465 24.6259 25.0949 24.3325 24.5238 23.9544C23.8863 23.5371 23.1625 23.0676 21.7746 23.0676C20.3801 23.0676 19.6629 23.5371 19.0254 23.9544C18.4543 24.326 18.0027 24.6259 17.0133 24.6259C16.0238 24.6259 15.5723 24.3325 15.0012 23.9544C14.3637 23.5371 13.6398 23.0676 12.252 23.0676C10.8574 23.0676 10.1402 23.5371 9.50274 23.9544C8.93164 24.326 8.48008 24.6259 7.49063 24.6259C6.50117 24.6259 6.04961 24.3325 5.47852 23.9544C4.95391 23.6088 4.36953 23.2241 3.39336 23.1068V20.8639C3.39336 20.5053 3.69219 20.2184 4.05078 20.2184H9.14414C9.50937 20.2184 9.8082 19.925 9.8082 19.5664C9.8082 19.2078 9.50937 18.9144 9.14414 18.9144H6.48789V15.8761C6.79336 15.9348 7.11875 15.9674 7.4707 15.9674C8.86523 15.9674 9.58242 15.498 10.2199 15.0807C10.791 14.709 11.2426 14.4091 12.232 14.4091C13.2215 14.4091 13.673 14.7025 14.2441 15.0807C14.8816 15.498 15.6055 15.9674 16.9934 15.9674C18.3813 15.9674 19.1051 15.498 19.7426 15.0807C20.3137 14.709 20.7652 14.4091 21.7547 14.4091C22.7441 14.4091 23.1957 14.7025 23.7668 15.0807C24.4043 15.498 25.1281 15.9674 26.516 15.9674C26.868 15.9674 27.1934 15.9348 27.4988 15.8761V18.9079H14.4168C14.0516 18.9079 13.7527 19.2013 13.7527 19.5599C13.7527 19.9185 14.0516 20.2119 14.4168 20.2119H29.9691C30.3344 20.2119 30.6266 20.5053 30.6266 20.8574L30.6332 23.1068Z" fill="#FA5356"/>
<path d="M6.47463 29.0724C6.46799 29.0333 6.45471 28.9877 6.43479 28.9485C6.41487 28.9094 6.39495 28.8703 6.37502 28.8377C6.34846 28.8051 6.3219 28.7725 6.2887 28.7399C6.25549 28.7073 6.22229 28.6812 6.18909 28.6617C6.15588 28.6356 6.11604 28.616 6.0762 28.603C6.03635 28.5899 5.99651 28.5769 5.95002 28.5639C5.73088 28.5247 5.5051 28.5899 5.35237 28.7399C5.31917 28.7725 5.2926 28.8051 5.27268 28.8377C5.24612 28.8703 5.2262 28.9094 5.21292 28.9485C5.19963 28.9877 5.18635 29.0268 5.17307 29.0724C5.16643 29.1115 5.15979 29.1572 5.15979 29.2028C5.15979 29.2419 5.16643 29.2876 5.17307 29.3332C5.17971 29.3723 5.19299 29.418 5.21292 29.4571C5.23284 29.4962 5.25276 29.5353 5.27268 29.5679C5.29924 29.6005 5.32581 29.6331 5.35237 29.6657C5.47854 29.7896 5.64456 29.8548 5.82385 29.8548C5.87034 29.8548 5.91018 29.8483 5.95002 29.8418C5.98987 29.8353 6.03635 29.8222 6.0762 29.8027C6.11604 29.7831 6.15588 29.7635 6.18909 29.744C6.22893 29.7179 6.26213 29.6918 6.2887 29.6657C6.3219 29.6331 6.34846 29.6005 6.37502 29.5679C6.40159 29.5353 6.42151 29.4962 6.43479 29.4571C6.44807 29.418 6.46135 29.3789 6.47463 29.3332C6.48127 29.2941 6.48792 29.2485 6.48792 29.2028C6.48792 29.1572 6.48792 29.1181 6.47463 29.0724Z" fill="#FA5356"/>
<path d="M13.6133 27.1228C13.6067 27.0837 13.5934 27.0381 13.5735 26.999C13.5535 26.9598 13.5336 26.9207 13.5137 26.8881C13.4871 26.8555 13.4606 26.8164 13.4274 26.7903C13.3942 26.7642 13.361 26.7316 13.3278 26.7121C13.2946 26.686 13.2547 26.6664 13.2149 26.6534C13.175 26.6338 13.1352 26.6273 13.0887 26.6143C13.0024 26.5947 12.916 26.5947 12.8297 26.6143C12.7899 26.6208 12.7434 26.6338 12.7035 26.6534C12.6637 26.673 12.6239 26.6925 12.5907 26.7121C12.5508 26.7382 12.5176 26.7642 12.491 26.7903C12.4645 26.8164 12.4313 26.8555 12.4114 26.8881C12.3848 26.9207 12.3649 26.9598 12.3516 26.999C12.3383 27.0381 12.325 27.0772 12.3117 27.1228C12.3051 27.162 12.2985 27.2076 12.2985 27.2532C12.2985 27.2989 12.3051 27.338 12.3117 27.3836C12.3184 27.4228 12.3317 27.4684 12.3516 27.5075C12.3715 27.5466 12.3914 27.5858 12.4114 27.6184C12.4379 27.651 12.4645 27.6901 12.491 27.7162C12.5176 27.7422 12.5574 27.7748 12.5907 27.7944C12.6239 27.8205 12.6637 27.84 12.7035 27.8531C12.7434 27.8726 12.7832 27.8792 12.8297 27.8922C12.8762 27.9052 12.916 27.9052 12.9559 27.9052C12.9957 27.9052 13.0422 27.8987 13.0887 27.8922C13.1285 27.8857 13.175 27.8726 13.2149 27.8531C13.2547 27.8335 13.2946 27.814 13.3278 27.7944C13.3676 27.7683 13.4008 27.7422 13.4274 27.7162C13.4539 27.6901 13.4871 27.651 13.5137 27.6184C13.5403 27.5858 13.5602 27.5466 13.5735 27.5075C13.5867 27.4684 13.6 27.4293 13.6133 27.3836C13.6199 27.3445 13.6266 27.2989 13.6266 27.2532C13.6266 27.2076 13.6199 27.1685 13.6133 27.1228Z" fill="#FA5356"/>
<path d="M21.2898 29.0725C21.2832 29.0334 21.2699 28.9878 21.25 28.9487C21.2301 28.9095 21.2101 28.8704 21.1902 28.8378C21.1636 28.8052 21.1371 28.7726 21.1105 28.74C21.0773 28.7074 21.0441 28.6813 21.0109 28.6618C20.9777 28.6357 20.9379 28.6161 20.898 28.6031C20.8582 28.5835 20.8183 28.577 20.7719 28.564C20.6855 28.5444 20.5992 28.5444 20.5129 28.564C20.473 28.5705 20.4265 28.5835 20.3867 28.6031C20.3469 28.6227 20.307 28.6422 20.2738 28.6618C20.2406 28.6879 20.2008 28.7139 20.1742 28.74C20.141 28.7726 20.1144 28.8052 20.0879 28.8378C20.0613 28.8704 20.0414 28.9095 20.0281 28.9487C20.0148 28.9878 20.0015 29.0269 19.9883 29.0725C19.9816 29.1117 19.975 29.1573 19.975 29.2029C19.975 29.2421 19.9816 29.2877 19.9883 29.3333C19.9949 29.3725 20.0082 29.4181 20.0281 29.4572C20.048 29.4963 20.0679 29.5355 20.0879 29.5681C20.1144 29.6007 20.141 29.6398 20.1742 29.6659C20.2074 29.6919 20.2406 29.7245 20.2738 29.7441C20.307 29.7702 20.3469 29.7897 20.3867 29.8028C20.4265 29.8223 20.4664 29.8289 20.5129 29.8419C20.5527 29.8484 20.5992 29.8549 20.6457 29.8549C20.8183 29.8549 20.991 29.7832 21.1172 29.6659C21.1504 29.6333 21.1769 29.6007 21.1969 29.5681C21.2234 29.5355 21.2433 29.4963 21.2566 29.4572C21.2699 29.4181 21.2832 29.379 21.2965 29.3333C21.3031 29.2942 21.3097 29.2486 21.3097 29.2029C21.3031 29.1573 21.3031 29.1182 21.2898 29.0725Z" fill="#FA5356"/>
<path d="M28.8269 27.5143C28.8203 27.4752 28.807 27.4295 28.7871 27.3904C28.7672 27.3513 28.7472 27.3122 28.7273 27.2796C28.7074 27.247 28.6742 27.2078 28.6476 27.1818C28.5215 27.0579 28.3554 26.9927 28.1761 26.9927C28.0035 26.9927 27.8308 27.0644 27.7047 27.1818C27.6715 27.2144 27.6449 27.247 27.625 27.2796C27.5984 27.3122 27.5785 27.3513 27.5652 27.3904C27.5519 27.4295 27.5386 27.4686 27.5254 27.5143C27.5121 27.5599 27.5121 27.599 27.5121 27.6447C27.5121 27.6903 27.5187 27.7294 27.5254 27.7751C27.532 27.8142 27.5453 27.8598 27.5652 27.899C27.5851 27.9381 27.6051 27.9772 27.625 28.0098C27.6515 28.0424 27.6781 28.0815 27.7047 28.1076C27.7379 28.1402 27.7711 28.1663 27.8043 28.1858C27.8375 28.2119 27.8773 28.2315 27.9172 28.2445C27.957 28.2576 27.9969 28.2706 28.0433 28.2836C28.0832 28.2901 28.1297 28.2967 28.1761 28.2967C28.3488 28.2967 28.5215 28.2249 28.6476 28.1076C28.6808 28.075 28.7074 28.0424 28.7273 28.0098C28.7539 27.9772 28.7738 27.9381 28.7871 27.899C28.807 27.8598 28.8136 27.8207 28.8269 27.7751C28.8336 27.736 28.8402 27.6903 28.8402 27.6447C28.8402 27.599 28.8336 27.5534 28.8269 27.5143Z" fill="#FA5356"/>
<path d="M22.2195 16.854C22.2129 16.8148 22.1996 16.7692 22.1797 16.7301C22.1597 16.691 22.1398 16.6518 22.1199 16.6192C22.0933 16.5866 22.0668 16.5475 22.0336 16.5214C22.0004 16.4888 21.9672 16.4628 21.934 16.4367C21.9008 16.4106 21.8609 16.391 21.8211 16.378C21.7812 16.3584 21.7414 16.3519 21.6949 16.3389C21.6086 16.3193 21.5222 16.3193 21.4359 16.3389C21.3961 16.3454 21.3496 16.3584 21.3097 16.378C21.2699 16.3976 21.2301 16.4171 21.1969 16.4367C21.1636 16.4628 21.1238 16.4888 21.0972 16.5214C21.064 16.554 21.0375 16.5866 21.0176 16.6192C20.991 16.6518 20.9711 16.691 20.9578 16.7301C20.9379 16.7692 20.9312 16.8083 20.9179 16.854C20.9113 16.8931 20.9047 16.9387 20.9047 16.9844C20.9047 17.03 20.9113 17.0691 20.9179 17.1148C20.9246 17.1604 20.9379 17.1995 20.9578 17.2386C20.9777 17.2778 20.9976 17.3169 21.0176 17.3495C21.0441 17.3821 21.0707 17.4212 21.0972 17.4473C21.1238 17.4734 21.1636 17.506 21.1969 17.5255C21.2301 17.5516 21.2699 17.5712 21.3097 17.5842C21.3496 17.6038 21.3894 17.6103 21.4359 17.6233C21.4824 17.6364 21.5222 17.6364 21.5687 17.6364C21.6152 17.6364 21.6551 17.6298 21.7015 17.6233C21.7414 17.6168 21.7879 17.6038 21.8277 17.5842C21.8676 17.5646 21.9074 17.5451 21.9406 17.5255C21.9738 17.4994 22.0136 17.4734 22.0402 17.4473C22.0668 17.4212 22.1 17.3821 22.1265 17.3495C22.1531 17.3169 22.173 17.2778 22.1863 17.2386C22.1996 17.1995 22.2129 17.1604 22.2261 17.1148C22.2394 17.0691 22.2394 17.03 22.2394 16.9844C22.2328 16.9452 22.2261 16.8996 22.2195 16.854Z" fill="#FA5356"/>
<path d="M13.5469 15.9676C13.5402 15.9284 13.5269 15.8828 13.507 15.8437C13.4871 15.8046 13.4672 15.7654 13.4472 15.7328C13.4207 15.7002 13.3941 15.6611 13.3676 15.635C13.341 15.609 13.3011 15.5764 13.2679 15.5568C13.2281 15.5307 13.1949 15.5112 13.1551 15.4981C13.1152 15.4786 13.0754 15.472 13.0289 15.459C12.9426 15.4394 12.8562 15.4394 12.7699 15.459C12.7301 15.4655 12.6836 15.4786 12.6437 15.4981C12.6039 15.5177 12.564 15.5372 12.5308 15.5568C12.4976 15.5829 12.4578 15.609 12.4312 15.635C12.398 15.6676 12.3715 15.7002 12.3515 15.7328C12.325 15.772 12.3051 15.8046 12.2918 15.8437C12.2719 15.8828 12.2652 15.9219 12.2519 15.9676C12.2453 16.0132 12.2386 16.0523 12.2386 16.098C12.2386 16.1371 12.2453 16.1827 12.2519 16.2284C12.2586 16.2675 12.2719 16.3131 12.2918 16.3522C12.3117 16.3914 12.3316 16.4305 12.3515 16.4631C12.3781 16.4957 12.4047 16.5283 12.4312 16.5609C12.4644 16.5935 12.4976 16.6196 12.5308 16.6391C12.5707 16.6652 12.6039 16.6848 12.6437 16.6978C12.6836 16.7174 12.7234 16.7239 12.7699 16.7369C12.8097 16.7434 12.8562 16.75 12.9027 16.75C12.9426 16.75 12.989 16.7434 13.0289 16.7369C13.0687 16.7304 13.1152 16.7174 13.1551 16.6978C13.1949 16.6848 13.2347 16.6587 13.2679 16.6391C13.3011 16.613 13.341 16.587 13.3676 16.5609C13.4008 16.5283 13.4273 16.4957 13.4472 16.4631C13.4738 16.4305 13.4937 16.3914 13.507 16.3522C13.5203 16.3131 13.5336 16.274 13.5469 16.2284C13.5535 16.1892 13.5601 16.1436 13.5601 16.098C13.5601 16.0523 13.5535 16.0132 13.5469 15.9676Z" fill="#FA5356"/>
</svg>
