<svg width="46" height="46" viewBox="0 0 46 46" fill="none" xmlns="http://www.w3.org/2000/svg">
<path d="M45.625 7.5V12.25H38.5V19.375H33.75V12.25H26.625V7.5H33.75V0.375H38.5V7.5H45.625ZM25.4375 24.125C26.3826 24.1247 27.289 23.7489 27.9571 23.0804C28.6252 22.4118 29.0003 21.5053 29 20.5601C28.9997 19.615 28.6239 18.7087 27.9554 18.0406C27.2868 17.3725 26.3803 16.9973 25.4351 16.9976C24.9671 16.9978 24.5038 17.0901 24.0715 17.2693C23.6391 17.4486 23.2464 17.7112 22.9156 18.0422C22.5848 18.3733 22.3224 18.7662 22.1434 19.1986C21.9645 19.6311 21.8725 20.0945 21.8726 20.5625C21.8728 21.0305 21.9651 21.4939 22.1443 21.9262C22.3236 22.3585 22.5862 22.7513 22.9172 23.0821C23.2483 23.4129 23.6412 23.6752 24.0736 23.8542C24.5061 24.0331 24.9695 24.1252 25.4375 24.125ZM33.75 31.8057L32.5316 30.452C32.0862 29.956 31.5413 29.5593 30.9324 29.2877C30.3235 29.0162 29.6643 28.8759 28.9976 28.8759C28.3309 28.8759 27.6717 29.0162 27.0629 29.2877C26.454 29.5593 25.9091 29.956 25.4636 30.452L23.908 32.1858L12.375 19.375L5.25 27.2909V12.25H21.875V7.5H5.25C3.99022 7.5 2.78204 8.00044 1.89124 8.89124C1.00044 9.78204 0.5 10.9902 0.5 12.25V40.75C0.5 42.0098 1.00044 43.218 1.89124 44.1088C2.78204 44.9996 3.99022 45.5 5.25 45.5H33.75C35.0098 45.5 36.218 44.9996 37.1088 44.1088C37.9996 43.218 38.5 42.0098 38.5 40.75V24.125H33.75V31.8057Z" fill="#C4DFEB"/>
</svg>
