<svg width="39" height="38" viewBox="0 0 39 38" fill="none" xmlns="http://www.w3.org/2000/svg">
<path d="M29.741 16.499C29.5851 16.0314 29.1918 15.69 28.7019 15.6232L22.9054 14.7846L20.3152 9.5373C20.1 9.09199 19.6547 8.81738 19.1574 8.81738C18.6601 8.81738 18.2222 9.09199 17.9996 9.5373L15.4093 14.792L9.61286 15.6307C9.12302 15.7049 8.72223 16.0389 8.5738 16.5064C8.41794 16.974 8.54411 17.4787 8.90036 17.8275L13.0937 21.917L12.1066 27.6838C12.025 28.1736 12.2179 28.6561 12.6187 28.9455C12.8414 29.1088 13.1086 29.1904 13.3758 29.1904C13.5836 29.1904 13.784 29.1385 13.9769 29.042L19.1574 26.3182L24.3379 29.042C24.5234 29.1385 24.7312 29.1904 24.939 29.1904C25.2136 29.1904 25.4734 29.1088 25.6961 28.9455C26.0968 28.6561 26.2898 28.1736 26.2082 27.6838L25.8148 25.3978C25.7554 25.0713 25.4511 24.8486 25.1246 24.908C24.798 24.9674 24.5754 25.2717 24.6347 25.5982L25.0281 27.8842C25.0355 27.9139 25.0207 27.951 24.991 27.9732C24.9539 28.0029 24.9242 27.9955 24.9019 27.9807L19.4394 25.1084C19.2613 25.0193 19.0535 25.0193 18.8828 25.1084L13.4203 27.9807C13.3906 27.9955 13.3535 27.9955 13.3312 27.9732C13.3015 27.951 13.2941 27.9213 13.2941 27.8842L14.3406 21.7982C14.3777 21.6053 14.3109 21.4049 14.1699 21.2639L9.75387 16.9592C9.73161 16.9369 9.72419 16.8998 9.73161 16.8701C9.73903 16.8404 9.76872 16.8182 9.80583 16.8107L15.914 15.9201C16.107 15.8904 16.2777 15.7717 16.3668 15.5936L19.098 10.0568C19.1277 9.99746 19.2242 9.99746 19.2539 10.0568L21.9851 15.5936C22.0742 15.7717 22.2449 15.8904 22.4379 15.9201L28.5461 16.8107C28.5758 16.8182 28.6054 16.8404 28.6203 16.8701C28.6277 16.8998 28.6203 16.9369 28.598 16.9592L24.182 21.2639C24.041 21.4049 23.9742 21.5978 24.0113 21.7982L24.3379 23.7205C24.3972 24.0471 24.7015 24.2697 25.0281 24.2103C25.3547 24.151 25.5773 23.8467 25.5179 23.5201L25.2433 21.9096L29.4367 17.8201C29.7633 17.4787 29.8894 16.974 29.741 16.499Z" fill="#C682FB"/>
<path d="M3.60852 18.3989H0.758521C0.424536 18.3989 0.157349 18.6661 0.157349 19.0001C0.157349 19.3341 0.424536 19.6013 0.758521 19.6013H3.60852C3.94251 19.6013 4.20969 19.3341 4.20969 19.0001C4.20969 18.6661 3.93508 18.3989 3.60852 18.3989Z" fill="#C682FB"/>
<path d="M37.5562 18.3989H34.7062C34.3722 18.3989 34.105 18.6661 34.105 19.0001C34.105 19.3341 34.3722 19.6013 34.7062 19.6013H37.5562C37.8902 19.6013 38.1573 19.3341 38.1573 19.0001C38.1573 18.6661 37.8902 18.3989 37.5562 18.3989Z" fill="#C682FB"/>
<path d="M7.73511 29.5686L5.72378 31.5873C5.48628 31.8248 5.48628 32.2033 5.72378 32.4334C5.84253 32.5521 5.99097 32.6115 6.14683 32.6115C6.30269 32.6115 6.45112 32.5521 6.56987 32.4334L8.58863 30.4146C8.82613 30.1771 8.82613 29.7986 8.58863 29.5686C8.35113 29.3385 7.97261 29.3385 7.73511 29.5686Z" fill="#C682FB"/>
<path d="M31.7449 5.56631L29.7261 7.58506C29.4886 7.82256 29.4886 8.20107 29.7261 8.43115C29.8448 8.5499 29.9933 8.60928 30.1491 8.60928C30.305 8.60928 30.4534 8.5499 30.5722 8.43115L32.591 6.4124C32.8285 6.1749 32.8285 5.79639 32.591 5.56631C32.3609 5.32881 31.9749 5.32881 31.7449 5.56631Z" fill="#C682FB"/>
<path d="M19.1573 33.9478C18.8233 33.9478 18.5562 34.2149 18.5562 34.5489V37.3989C18.5562 37.7329 18.8233 38.0001 19.1573 38.0001C19.4913 38.0001 19.7585 37.7329 19.7585 37.3989V34.5489C19.7585 34.2224 19.4913 33.9478 19.1573 33.9478Z" fill="#C682FB"/>
<path d="M19.1573 4.05234C19.4913 4.05234 19.7585 3.78516 19.7585 3.45117V0.601172C19.7585 0.267188 19.4913 0 19.1573 0C18.8233 0 18.5562 0.267188 18.5562 0.601172V3.45117C18.5562 3.77773 18.8233 4.05234 19.1573 4.05234Z" fill="#C682FB"/>
<path d="M30.5796 29.5688C30.3421 29.3312 29.9636 29.3312 29.7335 29.5688C29.496 29.8063 29.496 30.1848 29.7335 30.4148L31.7523 32.4336C31.8711 32.5524 32.0195 32.6117 32.1753 32.6117C32.3312 32.6117 32.4796 32.5524 32.5984 32.4336C32.8359 32.1961 32.8359 31.8176 32.5984 31.5875L30.5796 29.5688Z" fill="#C682FB"/>
<path d="M7.73511 8.43115C7.85386 8.5499 8.00229 8.60928 8.15815 8.60928C8.31401 8.60928 8.46245 8.5499 8.5812 8.43115C8.8187 8.19365 8.8187 7.81514 8.5812 7.58506L6.56987 5.56631C6.33237 5.32881 5.95386 5.32881 5.72378 5.56631C5.48628 5.80381 5.48628 6.18232 5.72378 6.4124L7.73511 8.43115Z" fill="#C682FB"/>
</svg>
