<svg width="32" height="29" viewBox="0 0 32 29" fill="none" xmlns="http://www.w3.org/2000/svg">
<g clip-path="url(#clip0)">
<path d="M3.88103 22.9748L4.38357 24.3888C4.40779 24.4492 4.45017 24.4976 4.50466 24.5217L5.76404 25.0898C5.93962 25.1683 5.93962 25.4524 5.76404 25.5309L4.50466 26.0989C4.45017 26.1231 4.40779 26.1715 4.38357 26.2319L3.88103 27.6459C3.80837 27.8454 3.56013 27.8454 3.48748 27.6459L2.98494 26.2319C2.96072 26.1715 2.91834 26.1231 2.86384 26.0989L1.60447 25.5309C1.42888 25.4524 1.42888 25.1683 1.60447 25.0898L2.86384 24.5217C2.91834 24.4976 2.96072 24.4492 2.98494 24.3888L3.48748 22.9748C3.56013 22.7753 3.81443 22.7753 3.88103 22.9748Z" fill="#FF63C1"/>
<path d="M29.6619 19.8931L30.0373 20.9446C30.0554 20.9869 30.0857 21.0231 30.122 21.0412L31.0545 21.4643C31.1877 21.5247 31.1877 21.7362 31.0545 21.7906L30.122 22.2136C30.0797 22.2317 30.0494 22.268 30.0373 22.3103L29.6619 23.3617C29.6074 23.5128 29.4197 23.5128 29.3713 23.3617L28.9959 22.3103C28.9777 22.268 28.9474 22.2317 28.9111 22.2136L27.9787 21.7906C27.8455 21.7301 27.8455 21.5186 27.9787 21.4643L28.9111 21.0412C28.9535 21.0231 28.9838 20.9869 28.9959 20.9446L29.3713 19.8931C29.4197 19.742 29.6074 19.742 29.6619 19.8931Z" fill="#FF63C1"/>
<path d="M25.2057 27.9725C25.4665 27.9725 25.6779 27.7615 25.6779 27.5011C25.6779 27.2408 25.4665 27.0298 25.2057 27.0298C24.9448 27.0298 24.7334 27.2408 24.7334 27.5011C24.7334 27.7615 24.9448 27.9725 25.2057 27.9725Z" fill="#FF63C1"/>
<path d="M15.3844 29C15.2512 29 15.1119 28.9577 15.003 28.8671C14.9606 28.8368 10.9463 25.5918 7.15608 21.4161C1.99143 15.7297 -0.333571 11.0888 0.241624 7.63222C0.399046 5.56553 1.32541 3.64388 2.84514 2.22984C4.38303 0.791623 6.39319 0 8.50022 0C10.2076 0 11.8424 0.513649 13.235 1.48656C14.234 2.1815 15.0514 3.07585 15.6569 4.10919C16.2563 3.07585 17.0797 2.1815 18.0787 1.48656C19.4713 0.513649 21.1121 0 22.8135 0C24.9629 0 26.9973 0.815795 28.5412 2.29631C30.0791 3.76474 30.9752 5.74078 31.0842 7.8558C31.611 11.2459 29.177 15.8204 23.8428 21.4584C19.9254 25.5978 15.8022 28.8368 15.7598 28.8671C15.6508 28.9577 15.5176 29 15.3844 29ZM8.50022 1.22067C4.81897 1.22067 1.73108 4.08502 1.46467 7.74703C1.46467 7.76516 1.45862 7.78933 1.45862 7.80746C0.937913 10.841 3.21448 15.2584 8.05217 20.5822C11.1098 23.9481 14.3127 26.7037 15.3905 27.6041C16.4924 26.7097 19.7983 23.9602 22.9649 20.6124C27.966 15.3249 30.3516 10.9679 29.8733 8.01292C29.8672 7.98875 29.8672 7.96458 29.8672 7.9404C29.6977 4.16962 26.6037 1.21463 22.8196 1.21463C19.9194 1.21463 17.2735 3.02751 16.2321 5.72869C16.1412 5.96437 15.9172 6.12148 15.6629 6.12148C15.4086 6.12148 15.1846 5.96437 15.0938 5.72869C14.0463 3.03355 11.3944 1.22067 8.50022 1.22067Z" fill="#FF63C1"/>
<path d="M4.3049 12.1222C4.05665 12.1222 3.82052 11.965 3.7297 11.7173C3.33009 10.6175 2.79122 8.47222 3.60861 6.40555C3.73576 6.09131 4.08693 5.94024 4.40177 6.0611C4.71662 6.188 4.86798 6.53849 4.74689 6.85272C4.25646 8.08548 4.3049 9.70498 4.88009 11.2943C4.99513 11.6085 4.83165 11.959 4.51076 12.0738C4.44415 12.1101 4.3715 12.1222 4.3049 12.1222Z" fill="#FF63C1"/>
<path d="M5.64288 5.00366C5.4794 5.00366 5.31593 4.93719 5.20089 4.81028C4.97081 4.56252 4.97686 4.18182 5.22511 3.94615C5.50362 3.6863 5.79425 3.45667 6.01827 3.28747C6.28468 3.08201 6.67218 3.13035 6.87804 3.40228C7.0839 3.66817 7.03546 4.05492 6.763 4.26038C6.56319 4.41145 6.30284 4.61691 6.06671 4.8405C5.94561 4.94927 5.79425 5.00366 5.64288 5.00366Z" fill="#FF63C1"/>
<path d="M20.6403 12.551C20.4405 12.551 20.271 12.3879 20.271 12.1824V11.4331C20.271 11.2337 20.4345 11.0645 20.6403 11.0645C20.8401 11.0645 21.0097 11.2276 21.0097 11.4331V12.1824C21.0036 12.3879 20.8401 12.551 20.6403 12.551Z" fill="#FF63C1"/>
<path d="M23.2438 11.0886C23.044 11.0886 22.8745 10.9255 22.8745 10.72V9.97067C22.8745 9.77125 23.038 9.60205 23.2438 9.60205C23.4437 9.60205 23.6132 9.76521 23.6132 9.97067V10.72C23.6132 10.9255 23.4497 11.0886 23.2438 11.0886Z" fill="#FF63C1"/>
<path d="M22.3479 14.5574C22.148 14.5574 21.9785 14.3942 21.9785 14.1887V13.4394C21.9785 13.24 22.142 13.0708 22.3479 13.0708C22.5477 13.0708 22.7172 13.234 22.7172 13.4394V14.1887C22.7111 14.3942 22.5477 14.5574 22.3479 14.5574Z" fill="#FF63C1"/>
<path d="M18.4183 18.032C18.2185 18.032 18.049 17.8688 18.049 17.6634V16.914C18.049 16.7146 18.2124 16.5454 18.4183 16.5454C18.6241 16.5454 18.7876 16.7086 18.7876 16.914V17.6634C18.7876 17.8688 18.6241 18.032 18.4183 18.032Z" fill="#FF63C1"/>
</g>

</svg>
