<svg width="31" height="36" viewBox="0 0 31 36" fill="none" xmlns="http://www.w3.org/2000/svg">
<g clip-path="url(#clip0)">
<path d="M8.77836 20.8802C9.07643 20.8802 9.32235 20.6627 9.36706 20.3702C9.41177 20.0777 9.23292 19.7927 8.94975 19.7102C7.72018 19.3352 6.37884 17.9777 5.2834 15.9752C5.12691 15.6827 4.76177 15.5777 4.47114 15.7427C4.18052 15.9002 4.07619 16.2677 4.24014 16.5602C5.48461 18.8252 7.07932 20.3927 8.60696 20.8502C8.65912 20.8727 8.71874 20.8802 8.77836 20.8802Z" fill="#7C97F4"/>
<path d="M14.9336 7.54474C15.2987 8.37724 15.4925 9.28474 15.4999 10.1997C15.4999 10.5297 15.7682 10.7997 16.0961 10.7997C16.424 10.7997 16.6922 10.5297 16.6922 10.1997C16.6848 9.11974 16.4612 8.05474 16.029 7.06474C15.4776 5.76724 14.5982 4.62724 13.473 3.77974C13.2122 3.58474 12.8396 3.63724 12.6384 3.89974C12.4372 4.16224 12.4968 4.54474 12.7576 4.73974C13.7115 5.46724 14.4641 6.43474 14.9336 7.54474Z" fill="#7C97F4"/>
<path d="M9.53841 3.60039C10.0824 3.60039 10.6189 3.69789 11.1331 3.87039C11.4461 3.97539 11.7814 3.81039 11.8932 3.49539C11.9976 3.18039 11.8336 2.84289 11.5206 2.73039C10.8798 2.51289 10.2091 2.40039 9.53841 2.40039C9.21053 2.40039 8.94226 2.67039 8.94226 3.00039C8.94226 3.33039 9.21053 3.60039 9.53841 3.60039Z" fill="#7C97F4"/>
<path d="M20.8728 24.5022C19.6433 24.1272 18.3019 22.7697 17.2065 20.7672C17.05 20.4747 16.6849 20.3697 16.3942 20.5347C16.1036 20.6922 15.9993 21.0597 16.1632 21.3522C17.4152 23.6247 19.0099 25.1922 20.5301 25.6497C20.7387 25.7172 20.9623 25.6647 21.1188 25.5147C21.2752 25.3647 21.3423 25.1472 21.2902 24.9372C21.238 24.7347 21.0815 24.5622 20.8728 24.5022Z" fill="#7C97F4"/>
<path d="M25.3961 8.58003C25.1353 8.38503 24.7627 8.43753 24.5615 8.70003C24.3603 8.96253 24.4199 9.34503 24.6807 9.54003C25.6346 10.2675 26.3872 11.235 26.8567 12.345C27.2293 13.185 27.423 14.085 27.423 15C27.423 15.33 27.6913 15.6 28.0192 15.6C28.3471 15.6 28.6153 15.33 28.6153 15C28.6079 13.92 28.3843 12.855 27.9521 11.865C27.4007 10.5675 26.5139 9.43503 25.3961 8.58003Z" fill="#7C97F4"/>
<path d="M23.4437 7.53769C22.8029 7.3127 22.1322 7.2002 21.4615 7.2002C21.1336 7.2002 20.8654 7.4702 20.8654 7.80019C20.8654 8.13019 21.1336 8.40019 21.4615 8.40019C22.0055 8.40019 22.542 8.49769 23.0562 8.67019C23.3692 8.77519 23.7045 8.61019 23.8163 8.29519C23.9206 7.98019 23.7493 7.64269 23.4437 7.53769Z" fill="#7C97F4"/>
<path d="M21.4541 4.8H21.4466C20.2469 4.8075 19.0546 5.0625 17.9591 5.565C16.424 2.2575 13.1675 0.0975 9.53846 0C4.45625 0 0 4.7625 0 10.2C0 14.9025 3.20433 21.285 7.41466 22.965L7.1613 24.5025C7.13149 24.675 7.18365 24.855 7.29543 24.99C7.40721 25.125 7.57115 25.2 7.75 25.2H8.7113L8.33125 26.34C7.92139 27.57 8.10024 28.92 8.82308 30L9.26274 30.6675C9.77692 31.44 9.90361 32.4 9.61298 33.2775L8.97212 35.205C8.86779 35.52 9.03918 35.8575 9.35216 35.9625C9.66514 36.0675 10.0005 35.895 10.1048 35.58L10.7382 33.6525C11.1481 32.4225 10.9692 31.0725 10.2464 29.9925L9.80673 29.325C9.29255 28.5525 9.16587 27.5925 9.45649 26.715L9.96322 25.2H11.3269C11.5058 25.2 11.6697 25.125 11.7815 24.99C11.8933 24.855 11.9454 24.675 11.9156 24.5025L11.6623 22.965C12.3925 22.6725 13.0707 22.2675 13.6743 21.7725C14.9262 24.3 16.901 26.805 19.3377 27.7725L19.0844 29.3025C19.0546 29.475 19.1067 29.655 19.2185 29.79C19.3303 29.925 19.4942 30 19.6731 30H20.6344L20.2543 31.14C19.8445 32.37 20.0233 33.72 20.7462 34.8L21.1858 35.4675C21.2305 35.5425 21.2752 35.6175 21.32 35.6925C21.4243 35.8875 21.6255 36.0075 21.8416 36.0075C21.9385 36.0075 22.0353 35.985 22.1248 35.9325C22.4154 35.775 22.5197 35.4075 22.3632 35.1225C22.3036 35.0175 22.244 34.9125 22.1769 34.8075L21.7373 34.14C21.2231 33.3675 21.0964 32.4075 21.387 31.53L21.8863 30.0075H23.25C23.4288 30.0075 23.5928 29.9325 23.7046 29.7975C23.8163 29.6625 23.8685 29.4825 23.8387 29.31L23.5853 27.7875C25.2918 27.12 26.9163 25.65 28.295 23.4825C29.9418 20.9475 30.8733 18.015 31 14.985C30.9851 9.555 26.5288 4.8 21.4541 4.8ZM1.19231 10.2C1.19231 5.4075 5.08966 1.2 9.53846 1.2C12.7428 1.2 15.7161 3.315 17.1245 6.5925C17.6238 7.7325 17.8846 8.955 17.8846 10.2C17.8846 10.6425 17.8548 11.085 17.7952 11.52C17.7281 12.045 17.6238 12.5625 17.4971 13.0725C16.8339 15.825 15.4404 18.345 13.4656 20.3625C12.7204 21.1125 11.8113 21.6675 10.8127 21.9975C10.1942 22.1925 9.53101 22.245 8.89014 22.1475C8.67404 22.1175 8.45793 22.065 8.24928 21.9975C4.34447 20.82 1.19231 14.58 1.19231 10.2ZM8.45048 24L8.56226 23.31C8.59952 23.3175 8.62933 23.3175 8.66659 23.325C8.70385 23.3325 8.75601 23.34 8.80072 23.34C9.03918 23.3775 9.2851 23.3925 9.53101 23.4H9.55337C9.79928 23.4 10.0377 23.3775 10.2762 23.3475C10.3209 23.34 10.3656 23.34 10.4103 23.3325C10.455 23.325 10.4774 23.325 10.5147 23.3175L10.6264 24.0075H8.45048V24ZM22.5421 28.8H20.3736L20.4853 28.11C20.5524 28.125 20.6195 28.125 20.6865 28.14C20.7462 28.1475 20.7983 28.155 20.8505 28.1625C21.0517 28.185 21.2529 28.2 21.4541 28.2H21.469C21.7894 28.2 22.1099 28.17 22.4228 28.11L22.5421 28.8ZM27.2964 22.83C25.9476 24.9375 24.3305 26.3325 22.7135 26.8125C22.5272 26.865 22.3334 26.91 22.1397 26.94L22.0577 26.955C21.6627 27.015 21.2603 27.015 20.8579 26.955C20.8058 26.9475 20.7611 26.9325 20.7089 26.925C20.545 26.895 20.381 26.8575 20.2245 26.8125C17.8026 26.115 15.8055 23.505 14.5909 20.9325C14.6281 20.895 14.6579 20.8575 14.6952 20.82C14.7697 20.7375 14.8442 20.6625 14.9187 20.58C15.0082 20.4825 15.0901 20.385 15.1796 20.2875C15.2541 20.205 15.3212 20.115 15.3957 20.025C15.4776 19.92 15.5596 19.815 15.6416 19.71C15.7087 19.62 15.7832 19.5225 15.8502 19.4325C15.9322 19.32 16.0067 19.215 16.0813 19.1025C16.1483 19.005 16.2154 18.9075 16.2825 18.8025C16.357 18.69 16.4315 18.57 16.4986 18.4575C16.5656 18.3525 16.6252 18.2475 16.6849 18.1425C16.7519 18.0225 16.819 17.9025 16.8861 17.7825C16.9457 17.6775 17.0053 17.565 17.0649 17.46C17.132 17.34 17.1916 17.2125 17.2512 17.0925C17.3108 16.98 17.363 16.8675 17.4151 16.755C17.4748 16.6275 17.5344 16.5 17.594 16.3725C17.6462 16.26 17.6983 16.1475 17.743 16.035C17.7952 15.9075 17.8474 15.7725 17.8995 15.645C17.9442 15.5325 17.9889 15.42 18.0337 15.3C18.0858 15.165 18.1305 15.0375 18.1752 14.9025C18.2125 14.79 18.2572 14.67 18.2945 14.5575C18.3392 14.4225 18.3764 14.2875 18.4212 14.1525C18.4584 14.04 18.4882 13.9275 18.5255 13.815C18.5627 13.68 18.6 13.545 18.6298 13.4025C18.6596 13.29 18.6894 13.1775 18.7118 13.0725C18.7416 12.93 18.7714 12.795 18.8012 12.6525C18.8236 12.5475 18.8459 12.435 18.8683 12.33C18.8906 12.1875 18.913 12.045 18.9353 11.9025C18.9502 11.805 18.9651 11.7075 18.98 11.61C19.0024 11.4525 19.0099 11.295 19.0248 11.1375C19.0322 11.055 19.0397 10.9725 19.0471 10.8975C19.062 10.665 19.0695 10.4325 19.0695 10.2075C19.0695 9.885 19.0471 9.555 19.0173 9.2325C19.0099 9.1275 18.9875 9.0225 18.9726 8.91C18.9428 8.6925 18.913 8.475 18.8683 8.2575C18.8459 8.13 18.8161 8.01 18.7863 7.8825C18.7416 7.6875 18.6894 7.485 18.6298 7.29C18.5925 7.1625 18.5478 7.035 18.5106 6.915C18.4808 6.825 18.4584 6.735 18.4212 6.645C19.3675 6.2175 20.3959 6 21.4317 6H21.4392C25.8805 6 29.7853 10.1925 29.7928 14.985C29.6885 17.775 28.8166 20.49 27.2964 22.83Z" fill="#7C97F4"/>
</g>

</svg>
