<svg width="18" height="16" viewBox="0 0 18 16" fill="none" xmlns="http://www.w3.org/2000/svg">
<path d="M6.79998 1.26316C5.67998 1.26316 4.79998 2.18947 4.79998 3.36842V4.21053C4.79998 5.38947 5.67998 6.31579 6.79998 6.31579C7.91998 6.31579 8.79998 5.38947 8.79998 4.21053V3.36842C8.79998 2.18947 7.91998 1.26316 6.79998 1.26316ZM6.79998 0C8.55998 0 9.99998 1.51579 9.99998 3.36842V4.21053C9.99998 6.06316 8.55998 7.57895 6.79998 7.57895C5.03998 7.57895 3.59998 6.06316 3.59998 4.21053V3.36842C3.59998 1.51579 5.03998 0 6.79998 0Z" fill="#01C5C5"/>
<path d="M12.4 13.4738C12.4 11.4106 10.48 9.6843 8 9.6843H5.6C3.12 9.6843 1.2 11.4106 1.2 13.4738V14.7369H12.4V13.4738ZM13.6 15.2843C13.6 15.6632 13.24 16.0001 12.8 16.0001H0.8C0.36 16.0001 0 15.6632 0 15.2843V13.4738C0 10.6948 2.52 8.42114 5.6 8.42114H8C11.08 8.42114 13.6 10.6948 13.6 13.4738V15.2843Z" fill="#01C5C5"/>
<path d="M11.8 6.31567H17.4C17.72 6.31567 18 6.61041 18 6.94725C18 7.2841 17.72 7.57883 17.4 7.57883H11.8C11.48 7.57883 11.2 7.2841 11.2 6.94725C11.2 6.61041 11.48 6.31567 11.8 6.31567Z" fill="#01C5C5"/>
<path d="M15.2 3.99999V9.89472C15.2 10.2316 14.92 10.5263 14.6 10.5263C14.28 10.5263 14 10.2316 14 9.89472V3.99999C14 3.66315 14.28 3.36841 14.6 3.36841C14.92 3.36841 15.2 3.66315 15.2 3.99999Z" fill="#01C5C5"/>
</svg>
