<svg width="12" height="8" viewBox="0 0 12 8" fill="none" xmlns="http://www.w3.org/2000/svg">
<path d="M9.86959 7.2905L5.98959 3.4105L2.10959 7.2905C2.017 7.38308 1.90709 7.45652 1.78613 7.50662C1.66517 7.55673 1.53552 7.58252 1.40459 7.58252C1.27366 7.58252 1.14401 7.55673 1.02304 7.50662C0.902081 7.45652 0.792169 7.38308 0.699587 7.2905C0.607005 7.19792 0.533567 7.08801 0.483461 6.96704C0.433356 6.84608 0.407568 6.71643 0.407568 6.5855C0.407568 6.45457 0.433356 6.32492 0.483462 6.20395C0.533567 6.08299 0.607005 5.97308 0.699587 5.8805L5.28959 1.2905C5.3821 1.19779 5.49199 1.12425 5.61296 1.07407C5.73394 1.02388 5.86362 0.998054 5.99459 0.998054C6.12556 0.998054 6.25524 1.02388 6.37621 1.07407C6.49719 1.12425 6.60707 1.19779 6.69959 1.2905L11.2896 5.8805C11.3823 5.97301 11.4558 6.0829 11.506 6.20387C11.5562 6.32485 11.582 6.45453 11.582 6.5855C11.582 6.71647 11.5562 6.84615 11.506 6.96712C11.4558 7.0881 11.3823 7.19799 11.2896 7.2905C10.8996 7.6705 10.2596 7.6805 9.86959 7.2905Z" fill="#2C504C"/>
</svg>
