<svg width="10" height="11" viewBox="0 0 10 11" fill="none" xmlns="http://www.w3.org/2000/svg">
<path d="M0.229328 0.20496C0.500889 -0.06832 0.925203 -0.06832 1.19676 0.20496L5.79633 4.83364C6.06789 5.10692 6.06789 5.53392 5.79633 5.8072L1.17979 10.453C0.925203 10.7262 0.483917 10.7433 0.212356 10.47C-0.0592051 10.2138 -0.0761781 9.76977 0.195383 9.49649L0.212356 9.47941L4.35366 5.32896L0.229328 1.16144C-0.042233 0.905241 -0.042233 0.46116 0.229328 0.20496Z" />
<path d="M4.22933 0.20496C4.50089 -0.06832 4.9252 -0.06832 5.19676 0.20496L9.79633 4.83364C10.0679 5.10692 10.0679 5.53392 9.79633 5.8072L5.17979 10.453C4.9252 10.7262 4.48392 10.7433 4.21236 10.47C3.94079 10.2138 3.92382 9.76977 4.19538 9.49649L4.21236 9.47941L8.35366 5.32896L4.22933 1.16144C3.95777 0.905241 3.95777 0.46116 4.22933 0.20496Z" />
</svg>
