<svg width="10" height="11" viewBox="0 0 10 11" fill="none" xmlns="http://www.w3.org/2000/svg">
<path d="M9.77067 10.4611C9.49911 10.7343 9.0748 10.7343 8.80324 10.4611L4.20367 5.83237C3.93211 5.55909 3.93211 5.13209 4.20367 4.85881L8.82021 0.213049C9.0748 -0.0602308 9.51608 -0.0773101 9.78764 0.19597C10.0592 0.45217 10.0762 0.89625 9.80462 1.16953L9.78764 1.18661L5.64634 5.33705L9.77067 9.50458C10.0422 9.76078 10.0422 10.2049 9.77067 10.4611Z" />
<path d="M5.77067 10.4611C5.49911 10.7343 5.0748 10.7343 4.80324 10.4611L0.203671 5.83237C-0.0678898 5.55909 -0.0678898 5.13209 0.203671 4.85881L4.82021 0.213049C5.0748 -0.0602308 5.51608 -0.0773101 5.78764 0.19597C6.05921 0.45217 6.07618 0.89625 5.80462 1.16953L5.78764 1.18661L1.64634 5.33705L5.77067 9.50458C6.04223 9.76078 6.04223 10.2049 5.77067 10.4611Z" />
</svg>
