<svg width="56" height="56" viewBox="0 0 56 56" fill="none" xmlns="http://www.w3.org/2000/svg">
<rect width="56" height="56" rx="20" fill="#C4DFEB"/>
<path d="M28 28C31.5464 28 34.4167 25.3161 34.4167 22C34.4167 18.6839 31.5464 16 28 16C24.4536 16 21.5833 18.6839 21.5833 22C21.5833 25.3161 24.4536 28 28 28ZM32.4 29.7143H31.9245C30.7328 30.25 29.4094 30.5714 28 30.5714C26.5906 30.5714 25.2729 30.25 24.0755 29.7143H23.6C19.9562 29.7143 17 32.4786 17 35.8857V37.4286C17 38.8482 18.2318 40 19.75 40H36.25C37.7682 40 39 38.8482 39 37.4286V35.8857C39 32.4786 36.0437 29.7143 32.4 29.7143Z" fill="white"/>
</svg>
