<svg width="57" height="69" viewBox="0 0 57 69" fill="none" xmlns="http://www.w3.org/2000/svg">
<path d="M41.5982 0C35.9601 0 31.4221 6.348 28.3968 12.282C25.3715 6.348 20.8335 0 15.1954 0C10.0385 0 5.91309 4.209 5.91309 9.384C5.91309 14.559 10.1073 18.768 15.2641 18.768C17.9457 18.768 22.1399 18.768 25.5777 18.768C25.5777 18.768 28.1218 18.768 31.3534 18.768C34.7913 18.768 38.9855 18.768 41.667 18.768C46.8238 18.768 51.018 14.559 51.018 9.384C50.9493 4.209 46.7551 0 41.5982 0ZM15.1954 12.834C13.2701 12.834 11.7575 11.316 11.7575 9.384C11.7575 7.452 13.2701 5.934 15.1954 5.934C16.3642 5.934 18.9083 7.521 22.0023 12.834H15.1954ZM41.5982 12.834H34.7913C37.8853 7.521 40.4294 5.934 41.5982 5.934C43.5235 5.934 45.0361 7.452 45.0361 9.384C45.0361 11.316 43.5235 12.834 41.5982 12.834Z" fill="#C4DFEB"/>
<path d="M53.0121 64.1012V42.3662H36.3728V69.0002H48.1303C50.8119 69.0002 53.0121 66.7922 53.0121 64.1012Z" fill="#C4DFEB"/>
<path d="M3.91919 42.3662V64.0322C3.91919 66.7232 6.11943 68.9312 8.80097 68.9312H20.6273V42.3662H3.91919Z" fill="#C4DFEB"/>
<path d="M0 25.5992V35.4662C0 37.8812 1.71894 39.8132 3.91918 40.2962V40.3652H20.6273V20.7002H4.88178C2.20024 20.7002 0 22.9082 0 25.5992Z" fill="#C4DFEB"/>
<path d="M52.0495 20.7002H36.3728V40.4342H53.0809V40.3652C55.3499 39.8822 57.0001 37.9502 57.0001 35.5352V25.5992C57.0001 22.9082 54.7998 20.7002 52.0495 20.7002Z" fill="#C4DFEB"/>
<path d="M22.6213 40.4342V42.3662V69.0002H34.3789V42.3662V40.4342V20.7002H22.6213V40.4342Z" fill="#C4DFEB"/>
</svg>
