<svg width="19" height="21" viewBox="0 0 19 21" fill="none" xmlns="http://www.w3.org/2000/svg">
<path d="M16.7074 1.74274H14.7014V0.871369C14.7014 0.406639 14.3288 0 13.8416 0C13.3831 0 12.9819 0.406639 12.9819 0.871369V1.74274H6.04676V0.871369C6.04676 0.406639 5.67421 0 5.18703 0C4.69985 0 4.3273 0.406639 4.3273 0.871369V1.74274H2.29261C1.03167 1.74274 0 2.78838 0 4.06639V18.6763C0 19.9544 1.03167 21 2.29261 21H16.7074C17.9683 21 19 19.9544 19 18.6763V4.06639C19 2.78838 17.9683 1.74274 16.7074 1.74274ZM17.2805 18.6763C17.2805 18.9958 17.0226 19.2573 16.7074 19.2573H2.29261C1.97738 19.2573 1.71946 18.9958 1.71946 18.6763V9.20747H17.2805V18.6763ZM17.2805 7.46473H1.71946V4.06639C1.71946 3.74689 1.97738 3.48548 2.29261 3.48548H4.29864V4.85062C4.29864 5.3444 4.67119 5.72199 5.15837 5.72199C5.64555 5.72199 6.0181 5.3444 6.0181 4.85062V3.48548H12.9532V4.85062C12.9532 5.3444 13.3544 5.72199 13.813 5.72199C14.3001 5.72199 14.6727 5.3444 14.6727 4.85062V3.48548H16.6787C16.994 3.48548 17.2519 3.74689 17.2519 4.06639C17.2805 4.06639 17.2805 7.46473 17.2805 7.46473Z" />
<path d="M5.41635 13.1871H5.27306C4.78588 13.1871 4.41333 12.8095 4.41333 12.3157C4.41333 11.8219 4.78588 11.4443 5.27306 11.4443H5.41635C5.90352 11.4443 6.27607 11.8219 6.27607 12.3157C6.27607 12.8095 5.87487 13.1871 5.41635 13.1871Z" />
<path d="M9.60037 13.1871H9.39977C8.91259 13.1871 8.54004 12.8095 8.54004 12.3157C8.54004 11.8219 8.91259 11.4443 9.39977 11.4443H9.60037C10.0876 11.4443 10.4601 11.8219 10.4601 12.3157C10.4601 12.8095 10.0876 13.1871 9.60037 13.1871Z" />
<path d="M13.7557 13.1871H13.6124C13.1252 13.1871 12.7527 12.8095 12.7527 12.3157C12.7527 11.8219 13.1252 11.4443 13.6124 11.4443H13.7557C14.2429 11.4443 14.6154 11.8219 14.6154 12.3157C14.6154 12.8095 14.2142 13.1871 13.7557 13.1871Z" />
<path d="M5.41635 17.398H5.27306C4.78588 17.398 4.41333 17.0204 4.41333 16.5266C4.41333 16.0329 4.78588 15.6553 5.27306 15.6553H5.41635C5.90352 15.6553 6.27607 16.0329 6.27607 16.5266C6.27607 17.0204 5.87487 17.398 5.41635 17.398Z" />
<path d="M9.60037 17.398H9.39977C8.91259 17.398 8.54004 17.0204 8.54004 16.5266C8.54004 16.0329 8.91259 15.6553 9.39977 15.6553H9.60037C10.0876 15.6553 10.4601 16.0329 10.4601 16.5266C10.4601 17.0204 10.0876 17.398 9.60037 17.398Z" />
<path d="M13.7557 17.398H13.6124C13.1252 17.398 12.7527 17.0204 12.7527 16.5266C12.7527 16.0329 13.1252 15.6553 13.6124 15.6553H13.7557C14.2429 15.6553 14.6154 16.0329 14.6154 16.5266C14.6154 17.0204 14.2142 17.398 13.7557 17.398Z" />
</svg>
