<svg width="20" height="14" viewBox="0 0 20 14" fill="none" xmlns="http://www.w3.org/2000/svg">
<path d="M10 12.6H2.14286C1.71429 12.6 1.42857 12.32 1.42857 11.9V2.1C1.42857 1.68 1.71429 1.4 2.14286 1.4H10V0H2.14286C1 0 0 0.98 0 2.1V11.9C0 13.02 1 14 2.14286 14H10" />
<path d="M9.99998 7.0001L3.99998 2.9401C3.71426 2.6601 3.28569 2.8001 2.99998 3.0801C2.71426 3.3601 2.85712 3.7801 3.14283 4.0601L9.57141 8.4001C9.57141 8.4001 9.85712 8.5401 9.99998 8.5401" />
<path d="M10 14H17.8571C19 14 20 13.02 20 11.9V2.1C20 0.98 19 0 17.8571 0H10V1.4H17.8571C18.2857 1.4 18.5714 1.68 18.5714 2.1V11.9C18.5714 12.32 18.2857 12.6 17.8571 12.6H10" />
<path d="M10 8.5401C10.1429 8.5401 10.4286 8.5401 10.4286 8.4001L16.8571 4.0601C17.1429 3.7801 17.2857 3.3601 17 3.0801C16.7143 2.8001 16.2857 2.6601 16 2.9401L10 7.0001" />
</svg>
