<svg width="9" height="8" viewBox="0 0 9 8" fill="none" xmlns="http://www.w3.org/2000/svg">
<path fill-rule="evenodd" clip-rule="evenodd" d="M6.97004 0.969792C7.10999 0.831064 7.29891 0.752988 7.49597 0.752444C7.69302 0.751901 7.88238 0.828933 8.02309 0.966887C8.1638 1.10484 8.24457 1.29263 8.24793 1.48966C8.25128 1.68669 8.17697 1.87712 8.04104 2.01979L4.04904 7.00979C3.98043 7.08369 3.89762 7.14299 3.80557 7.18416C3.71352 7.22532 3.61411 7.2475 3.51329 7.24937C3.41247 7.25124 3.31231 7.23275 3.21879 7.19502C3.12528 7.1573 3.04033 7.1011 2.96904 7.02979L0.324036 4.38379C0.250349 4.31513 0.191247 4.23233 0.150255 4.14033C0.109263 4.04833 0.0872207 3.94902 0.0854439 3.84831C0.0836671 3.74761 0.102192 3.64758 0.139913 3.55419C0.177634 3.46081 0.233779 3.37597 0.304997 3.30475C0.376216 3.23354 0.46105 3.17739 0.554438 3.13967C0.647826 3.10195 0.747855 3.08342 0.848558 3.0852C0.949261 3.08698 1.04857 3.10902 1.14057 3.15001C1.23257 3.191 1.31537 3.25011 1.38404 3.32379L3.47804 5.41679L6.95104 0.991792C6.95723 0.984046 6.96391 0.976698 6.97104 0.969792H6.97004Z" fill="white"/>
</svg>
