<svg width="320" height="96" viewBox="0 0 320 96" fill="none" xmlns="http://www.w3.org/2000/svg">
<path opacity="0.67" d="M145.118 28.787C139.763 48.85 125.534 89.4356 96.4641 94.847C96.4641 94.847 215.447 95.3065 214.478 94.6428C213.611 94.0813 182.093 62.2254 175.463 30.9311C173.882 23.3756 167.303 17.9642 159.653 17.8621C152.819 17.76 146.852 22.2524 145.118 28.787Z" fill="white"/>
<path d="M320 95V0C308.037 1.48039 285.411 8.52499 286.386 40.3788C286.386 40.3788 250.042 22.1037 241.98 60.5427C241.98 60.5427 221.565 52.273 220.264 69.9355C191.202 58.705 166.625 71.6711 165 95H320Z" fill="white"/>
<path d="M159 94.9488C156.705 73.9194 120.366 64.2489 110.229 78.7802C102.961 70.6447 92.4419 69.4167 84.2815 77.7569C81.2213 69.8261 73.9535 69.5702 68.407 70.7471C71.8496 67.3701 73.9535 63.0209 73.9535 58.2624C73.9535 47.5175 63.3067 38.8703 50.1736 38.8703C46.2847 38.8703 42.587 39.6378 39.3356 41.0193C49.2811 1.92807 7.71411 0.597737 0.063753 1.05824L0 95L159 94.9488Z" fill="white"/>
</svg>
