<svg width="23" height="22" viewBox="0 0 23 22" fill="none" xmlns="http://www.w3.org/2000/svg">
<path d="M14.2443 2.51953L14.2285 2.50158L14.2116 2.48467L13.0191 1.29217C12.9765 1.24955 12.9765 1.18045 13.0191 1.13783C13.0617 1.09521 13.1308 1.09521 13.1734 1.13783L13.7037 0.6075L13.1734 1.13783L14.351 2.31545C14.8267 2.85076 15.035 3.41378 15.035 3.99375C15.035 4.57077 14.8289 5.12297 14.3517 5.66004L10.8949 9.09782C10.862 9.1305 10.8086 9.1294 10.7771 9.09539C10.7474 9.06331 10.7482 9.01356 10.7788 8.9824L14.2141 5.48908C14.6247 5.07695 14.8025 4.52571 14.8025 3.99375C14.8025 3.43827 14.6111 2.93633 14.2443 2.51953ZM8.55736 3.52843L8.05015 4.08092L8.55735 3.52843C8.5193 3.49349 8.51803 3.43389 8.55455 3.39736C8.59001 3.3619 8.64749 3.3619 8.68294 3.39735L9.21327 2.86703L8.68295 3.39736L8.70131 3.41572C9.18514 3.96962 9.39875 4.5244 9.39875 5.11875C9.39875 5.67815 9.18643 6.22474 8.6934 6.77466L8.64727 6.82491C8.6191 6.8556 8.57104 6.85662 8.54158 6.82717C8.51212 6.79771 8.51315 6.74965 8.54384 6.72148L8.03663 6.16899L8.54384 6.72148L8.59721 6.67249L8.609 6.66166L8.62033 6.65033C9.0366 6.23406 9.21125 5.69027 9.21125 5.11875C9.21125 4.54724 9.0366 4.00344 8.62033 3.58717L8.609 3.57585L8.59721 3.56501L8.55736 3.52843ZM21.9725 5.71183L21.4422 6.24216L21.9725 5.71182L21.9066 5.64592C21.4941 5.23349 20.9694 4.99875 20.375 4.99875C19.7807 4.99875 19.2561 5.23337 18.8437 5.64562C18.8436 5.64572 18.8435 5.64582 18.8434 5.64592L13.1305 11.3383C13.1007 11.368 13.0528 11.3689 13.0219 11.3403C12.9893 11.3101 12.9883 11.2588 13.0197 11.2274L18.7307 5.50619C19.2767 5.02058 19.8195 4.81125 20.375 4.81125C20.9691 4.81125 21.5293 5.02467 22.0643 5.49629L22.1266 5.56415C22.1646 5.60556 22.164 5.66934 22.1252 5.71002C22.0839 5.7534 22.0149 5.75422 21.9725 5.71183ZM4.26835 10.5973C4.57699 9.7331 5.68054 9.48495 6.32941 10.1338L11.9849 15.7893C12.6338 16.4382 12.3856 17.5418 11.5215 17.8504L2.72399 20.9924C1.73072 21.3471 0.771653 20.388 1.12639 19.3948L4.26835 10.5973ZM15.2916 13.4228L16.4557 12.2587C17.014 11.7709 17.5582 11.5613 18.125 11.5613C18.6972 11.5613 19.2602 11.7749 19.8 12.2535L20.9995 13.483C21.0327 13.5171 21.0321 13.5716 20.9981 13.6049C20.9645 13.6379 20.9108 13.6379 20.8772 13.6049L19.6427 12.3932C19.233 11.9849 18.7101 11.7488 18.125 11.7488C17.5256 11.7488 17.027 11.9961 16.6272 12.3959L15.4459 13.5772C15.4033 13.6198 15.3342 13.6198 15.2916 13.5772C15.249 13.5346 15.249 13.4655 15.2916 13.4228Z"  stroke-width="1.5"/>
</svg>
