<svg width="20" height="20" viewBox="0 0 20 20" fill="none" xmlns="http://www.w3.org/2000/svg">
<path d="M10 0C4.46808 0 0 4.46808 0 10C0 15.5319 4.46808 20 10 20C15.5319 20 20 15.5319 20 10C20 4.46808 15.5319 0 10 0ZM2.97872 5.74468L16.0284 15.461C13.0496 18.8652 7.87234 19.1489 4.46808 16.1702C1.56028 13.4752 0.921986 9.07801 2.97872 5.74468ZM10 1.84397C14.539 1.84397 18.156 5.53191 18.156 10C18.156 11.4184 17.8014 12.766 17.0922 13.9716L4.11347 4.32624C5.67376 2.69504 7.80142 1.84397 10 1.84397Z" fill="#85A3A5"/>
</svg>
