<svg width="31" height="22" viewBox="0 0 31 22" fill="none" xmlns="http://www.w3.org/2000/svg">
<path d="M13.975 5.75C13.975 8.21436 11.9074 10.25 9.3 10.25C6.69256 10.25 4.625 8.21436 4.625 5.75C4.625 3.28564 6.69256 1.25 9.3 1.25C11.9074 1.25 13.975 3.28564 13.975 5.75ZM9.3 14C10.5504 14 11.7234 13.7184 12.7802 13.25H13.02C15.7098 13.25 17.85 15.356 17.85 17.9V19.25C17.85 20.055 17.1677 20.75 16.275 20.75H2.325C1.43225 20.75 0.75 20.055 0.75 19.25V17.9C0.75 15.356 2.89022 13.25 5.58 13.25H5.82038C6.87998 13.7179 8.04858 14 9.3 14ZM27.15 6.5C27.15 8.54717 25.4263 10.25 23.25 10.25C21.0737 10.25 19.35 8.54717 19.35 6.5C19.35 4.45283 21.0737 2.75 23.25 2.75C25.4263 2.75 27.15 4.45283 27.15 6.5ZM23.25 13.625C24.06 13.625 24.8143 13.4727 25.5104 13.25H25.575C28.1824 13.25 30.25 15.2856 30.25 17.75C30.25 18.555 29.5678 19.25 28.675 19.25H20.9V17.9C20.9 16.2515 20.3485 14.7384 19.4381 13.4992C19.9076 13.3393 20.4053 13.25 20.925 13.25H20.9896C21.6857 13.4727 22.44 13.625 23.25 13.625Z"  stroke-width="1.5"/>
</svg>
