<svg width="12" height="12" viewBox="0 0 12 12" fill="none" xmlns="http://www.w3.org/2000/svg">
<path d="M1.8 6H1.2V10.8C1.2 11.1183 1.32643 11.4235 1.55147 11.6485C1.77652 11.8736 2.08174 12 2.4 12H5.4V6H1.8ZM9.6 6H6.6V12H9.6C9.91826 12 10.2235 11.8736 10.4485 11.6485C10.6736 11.4235 10.8 11.1183 10.8 10.8V6H9.6ZM10.0746 3C10.1626 2.70827 10.2049 2.40467 10.2 2.1C10.2 0.942 9.258 0 8.1 0C7.1268 0 6.477 0.8892 6.0576 1.851C5.6442 0.942 4.9614 0 3.9 0C2.742 0 1.8 0.942 1.8 2.1C1.8 2.4576 1.8474 2.7534 1.9254 3H0V5.4H5.4V4.2H6.6V5.4H12V3H10.0746ZM3 2.1C3 1.6038 3.4038 1.2 3.9 1.2C4.4328 1.2 4.9284 2.115 5.2188 3H3.6C3.3756 3 3 3 3 2.1ZM8.1 1.2C8.5962 1.2 9 1.6038 9 2.1C9 3 8.6244 3 8.4 3H6.9138C7.2198 2.0544 7.6644 1.2 8.1 1.2Z"/>
</svg>
