<svg width="16" height="16" viewBox="0 0 16 16" fill="none" xmlns="http://www.w3.org/2000/svg">
<path d="M3.54594 9.66888L2.989 11.748L0.953407 11.7911C0.345063 10.6627 0 9.37176 0 7.9999C0 6.67331 0.322625 5.42232 0.894501 4.3208H0.894938L2.70719 4.65305L3.50106 6.45441C3.33491 6.93881 3.24435 7.45881 3.24435 7.9999C3.24441 8.58714 3.35078 9.14979 3.54594 9.66888Z" fill="#FBBB00"/>
<path d="M15.8603 6.50537C15.9521 6.9893 16 7.48908 16 7.99986C16 8.5726 15.9398 9.13129 15.8251 9.67019C15.4357 11.504 14.4181 13.1053 13.0084 14.2385L13.008 14.2381L10.7253 14.1216L10.4023 12.1049C11.3377 11.5563 12.0687 10.6979 12.4537 9.67019H8.1759V6.50537H12.5161H15.8603Z" fill="#518EF8"/>
<path d="M13.0079 14.2381L13.0083 14.2386C11.6373 15.3405 9.89578 15.9999 7.99997 15.9999C4.95337 15.9999 2.30459 14.297 0.953369 11.7911L3.5459 9.66895C4.2215 11.472 5.96084 12.7555 7.99997 12.7555C8.87644 12.7555 9.69756 12.5186 10.4022 12.105L13.0079 14.2381Z" fill="#28B446"/>
<path d="M13.1064 1.84174L10.5148 3.96347C9.78554 3.50766 8.92354 3.24435 8.00004 3.24435C5.91475 3.24435 4.14288 4.58675 3.50113 6.45445L0.894969 4.32084H0.894531C2.22597 1.75383 4.90816 0 8.00004 0C9.94113 0 11.7209 0.691432 13.1064 1.84174Z" fill="#F14336"/>
</svg>
