<svg width="30" height="17" viewBox="0 0 30 17" fill="none" xmlns="http://www.w3.org/2000/svg">
<g clip-path="url(#clip0)">
<path d="M5.27625 7.86593C6.73497 7.86593 7.91749 6.64735 7.91749 5.14415C7.91749 3.64095 6.73497 2.42236 5.27625 2.42236C3.81753 2.42236 2.63501 3.64095 2.63501 5.14415C2.63501 6.64735 3.81753 7.86593 5.27625 7.86593Z" fill="white"/>
<path d="M8.80206 9.76522C7.47217 10.7978 6.6 12.4551 6.6 14.3228V14.6606H0.989691C0.451546 14.6606 0 14.1953 0 13.6407V12.9587C0 10.8935 1.62062 9.21704 3.63093 9.21704H6.92783C7.61443 9.22342 8.25773 9.42739 8.80206 9.76522Z" fill="white"/>
<path d="M24.7235 7.86593C26.1822 7.86593 27.3647 6.64735 27.3647 5.14415C27.3647 3.64095 26.1822 2.42236 24.7235 2.42236C23.2648 2.42236 22.0823 3.64095 22.0823 5.14415C22.0823 6.64735 23.2648 7.86593 24.7235 7.86593Z" fill="white"/>
<path d="M30.0001 12.9587V13.6407C30.0001 14.1953 29.5485 14.6606 29.0104 14.6606H23.4001V14.3228C23.4001 12.4615 22.5279 10.7978 21.198 9.7652C21.7361 9.42736 22.3856 9.22339 23.0722 9.22339H26.3691C28.3794 9.22339 30.0001 10.8934 30.0001 12.9587Z" fill="white"/>
<path d="M15.0928 8.15898C17.2792 8.15898 19.0516 6.33253 19.0516 4.07949C19.0516 1.82645 17.2792 0 15.0928 0C12.9064 0 11.134 1.82645 11.134 4.07949C11.134 6.33253 12.9064 8.15898 15.0928 8.15898Z" fill="white"/>
<path d="M18.7238 10.1987H11.462C9.45786 10.1987 7.83105 11.8751 7.83105 13.9404V15.9801C7.83105 16.5411 8.27642 17 8.82075 17H21.3589C21.9032 17 22.3486 16.5411 22.3486 15.9801V13.9404C22.3486 11.8751 20.7218 10.1987 18.7238 10.1987Z" fill="white"/>
</g>
<defs>
<clipPath id="clip0">
<rect width="30" height="17" fill="white"/>
</clipPath>
</defs>
</svg>
