<svg width="18" height="14" viewBox="0 0 18 14" fill="none" xmlns="http://www.w3.org/2000/svg">
<path d="M15 12H13.5V12.3125C13.5 12.4375 13.4062 12.5 13.3125 12.5H1.6875C1.5625 12.5 1.5 12.4375 1.5 12.3125V4.6875C1.5 4.59375 1.5625 4.5 1.6875 4.5H2V3H1.5C0.65625 3 0 3.6875 0 4.5V12.5C0 13.3438 0.65625 14 1.5 14H13.5C14.3125 14 15 13.3438 15 12.5V12ZM16.3125 1.5C16.4062 1.5 16.5 1.59375 16.5 1.6875V9.3125C16.5 9.4375 16.4062 9.5 16.3125 9.5H4.6875C4.5625 9.5 4.5 9.4375 4.5 9.3125V1.6875C4.5 1.59375 4.5625 1.5 4.6875 1.5H16.3125ZM16.5 0H4.5C3.65625 0 3 0.6875 3 1.5V9.5C3 10.3438 3.65625 11 4.5 11H16.5C17.3125 11 18 10.3438 18 9.5V1.5C18 0.6875 17.3125 0 16.5 0ZM8.25 3.5C8.25 2.8125 7.6875 2.25 7 2.25C6.28125 2.25 5.75 2.8125 5.75 3.5C5.75 4.21875 6.28125 4.75 7 4.75C7.6875 4.75 8.25 4.21875 8.25 3.5ZM6 6.5V8H15V5.5L12.75 3.28125C12.5938 3.125 12.375 3.125 12.2188 3.28125L9 6.5L7.75 5.28125C7.59375 5.125 7.375 5.125 7.21875 5.28125L6 6.5Z" />
</svg>
