<svg width="12" height="12" viewBox="0 0 12 12" fill="none" xmlns="http://www.w3.org/2000/svg">
<path d="M1.40541 2.86531C2.18159 2.86531 2.81081 2.22389 2.81081 1.43265C2.81081 0.641421 2.18159 0 1.40541 0C0.629221 0 0 0.641421 0 1.43265C0 2.22389 0.629221 2.86531 1.40541 2.86531Z"/>
<path d="M11.9999 2.20404C11.9999 2.57139 11.7116 2.86527 11.3513 2.86527H5.20114C4.84078 2.86527 4.55249 2.57139 4.55249 2.20404V0.673432C4.55249 0.306085 4.84078 0.012207 5.20114 0.012207H11.3513C11.7116 0.012207 11.9999 0.306085 11.9999 0.673432V2.20404Z" />
<path d="M1.40541 7.43269C2.18159 7.43269 2.81081 6.79127 2.81081 6.00004C2.81081 5.2088 2.18159 4.56738 1.40541 4.56738C0.629221 4.56738 0 5.2088 0 6.00004C0 6.79127 0.629221 7.43269 1.40541 7.43269Z"/>
<path d="M11.9999 6.75918C11.9999 7.12653 11.7116 7.42041 11.3513 7.42041H5.20114C4.84078 7.42041 4.55249 7.12653 4.55249 6.75918V5.24081C4.55249 4.87347 4.84078 4.57959 5.20114 4.57959H11.3513C11.7116 4.57959 11.9999 4.87347 11.9999 5.24081V6.75918Z"/>
<path d="M1.40541 12.0001C2.18159 12.0001 2.81081 11.3587 2.81081 10.5674C2.81081 9.77619 2.18159 9.13477 1.40541 9.13477C0.629221 9.13477 0 9.77619 0 10.5674C0 11.3587 0.629221 12.0001 1.40541 12.0001Z"/>
<path d="M11.9999 11.3266C11.9999 11.694 11.7116 11.9878 11.3513 11.9878H5.20114C4.84078 11.9878 4.55249 11.694 4.55249 11.3266V9.79599C4.55249 9.42864 4.84078 9.13477 5.20114 9.13477H11.3513C11.7116 9.13477 11.9999 9.42864 11.9999 9.79599V11.3266Z"/>
</svg>
