<svg width="10" height="13" viewBox="0 0 10 13" fill="none" xmlns="http://www.w3.org/2000/svg">
<path d="M7.8 4.9C7.8 4.9 7.8 4.7 7.8 4.9V3.2C7.8 1.5 6.4 0 4.7 0C3 0.1 1.5 1.4 1.5 3.2V4.7V4.8C0.7 5.1 0 6 0 7V10.2C0 11.4 1.1 12.5 2.3 12.5H6.9C8.1 12.5 9.2 11.4 9.2 10.2V7C9.3 6.1 8.7 5.2 7.8 4.9ZM3.1 3.2C3.1 2.2 3.8 1.7 4.6 1.7C5.4 1.7 6.1 2.4 6.1 3.2V4.7H3V3.2H3.1ZM7.8 10.1C7.8 10.5 7.5 10.9 7 10.9H2.3C1.9 10.9 1.5 10.6 1.5 10.1V7C1.5 6.6 1.8 6.2 2.3 6.2H6.9C7.3 6.2 7.7 6.5 7.7 7V10.2H7.8V10.1Z"/>
</svg>
