<svg width="27" height="21" viewBox="0 0 27 21" fill="none" xmlns="http://www.w3.org/2000/svg">
<path d="M6.69995 6.19995H14.6" stroke="#2C504C" stroke-width="1.5" stroke-linecap="round"/>
<path d="M6.69995 11.4H12.1" stroke="#2C504C" stroke-width="1.5" stroke-linecap="round"/>
<path d="M6.69995 8.80005H14.6" stroke="#2C504C" stroke-width="1.5" stroke-linecap="round"/>
<path d="M17.8 0.900024H4.70005C2.50005 0.900024 0.800049 2.70002 0.800049 4.80002V18.7C0.800049 19 0.900049 19.3 1.20005 19.4C1.30005 19.4 1.40005 19.4 1.50005 19.4C1.70005 19.4 1.90005 19.3 2.00005 19.2L5.00005 16.3H17.8C19.3 16.3 20.6001 15.5 21.2001 14.3" stroke="#2C504C" stroke-width="1.5" stroke-miterlimit="10"/>
<path d="M25.3 4.9C25.3 4.9 25.3 4.7 25.3 4.9V3.2C25.3 1.5 23.9 0 22.2 0C20.5 0.1 19 1.4 19 3.2V4.7V4.8C18.2 5.1 17.5 6 17.5 7V10.2C17.5 11.4 18.6 12.5 19.8 12.5H24.4C25.6 12.5 26.7 11.4 26.7 10.2V7C26.8 6.1 26.2 5.2 25.3 4.9ZM20.6 3.2C20.6 2.2 21.3 1.7 22.1 1.7C22.9 1.7 23.6 2.4 23.6 3.2V4.7H20.5V3.2H20.6ZM25.3 10.1C25.3 10.5 25 10.9 24.5 10.9H19.8C19.4 10.9 19 10.6 19 10.1V7C19 6.6 19.3 6.2 19.8 6.2H24.4C24.8 6.2 25.2 6.5 25.2 7V10.2H25.3V10.1Z" fill="#2C504C"/>
</svg>
