<svg width="31" height="22" viewBox="0 -3 18 28" fill="none" xmlns="http://www.w3.org/2000/svg">
<path d="M13.975 5.25C13.975 7.71436 11.9074 9.75 9.3 9.75C6.69256 9.75 4.625 7.71436 4.625 5.25C4.625 2.78564 6.69256 0.75 9.3 0.75C11.9074 0.75 13.975 2.78564 13.975 5.25ZM9.3 13.5C10.5504 13.5 11.7234 13.2184 12.7802 12.75H13.02C15.7098 12.75 17.85 14.856 17.85 17.4V18.75C17.85 19.555 17.1677 20.25 16.275 20.25H2.325C1.43225 20.25 0.75 19.555 0.75 18.75V17.4C0.75 14.856 2.89022 12.75 5.58 12.75H5.82038C6.87997 13.2179 8.04857 13.5 9.3 13.5Z"  stroke-width="1.5"/>
</svg>
