<svg width="12" height="12" viewBox="0 0 12 12" fill="none" xmlns="http://www.w3.org/2000/svg">
<path d="M1.62334 3.31707C2.51989 3.31707 3.24668 2.57452 3.24668 1.65854C3.24668 0.742552 2.51989 0 1.62334 0C0.726795 0 0 0.742552 0 1.65854C0 2.57452 0.726795 3.31707 1.62334 3.31707Z" />
<path d="M6.00005 3.31707C6.8966 3.31707 7.62339 2.57452 7.62339 1.65854C7.62339 0.742552 6.8966 0 6.00005 0C5.1035 0 4.37671 0.742552 4.37671 1.65854C4.37671 2.57452 5.1035 3.31707 6.00005 3.31707Z" />
<path d="M10.3765 3.31707C11.2731 3.31707 11.9999 2.57452 11.9999 1.65854C11.9999 0.742552 11.2731 0 10.3765 0C9.47997 0 8.75317 0.742552 8.75317 1.65854C8.75317 2.57452 9.47997 3.31707 10.3765 3.31707Z" />
<path d="M1.62334 7.65887C2.51989 7.65887 3.24668 6.91632 3.24668 6.00033C3.24668 5.08435 2.51989 4.3418 1.62334 4.3418C0.726795 4.3418 0 5.08435 0 6.00033C0 6.91632 0.726795 7.65887 1.62334 7.65887Z" />
<path d="M6.00005 7.65887C6.8966 7.65887 7.62339 6.91632 7.62339 6.00033C7.62339 5.08435 6.8966 4.3418 6.00005 4.3418C5.1035 4.3418 4.37671 5.08435 4.37671 6.00033C4.37671 6.91632 5.1035 7.65887 6.00005 7.65887Z" />
<path d="M10.3765 7.65887C11.2731 7.65887 11.9999 6.91632 11.9999 6.00033C11.9999 5.08435 11.2731 4.3418 10.3765 4.3418C9.47997 4.3418 8.75317 5.08435 8.75317 6.00033C8.75317 6.91632 9.47997 7.65887 10.3765 7.65887Z" />
<path d="M6.00005 11.9997C6.8966 11.9997 7.62339 11.2571 7.62339 10.3412C7.62339 9.42517 6.8966 8.68262 6.00005 8.68262C5.1035 8.68262 4.37671 9.42517 4.37671 10.3412C4.37671 11.2571 5.1035 11.9997 6.00005 11.9997Z" />
<path d="M1.62334 11.9997C2.51989 11.9997 3.24668 11.2571 3.24668 10.3412C3.24668 9.42517 2.51989 8.68262 1.62334 8.68262C0.726795 8.68262 0 9.42517 0 10.3412C0 11.2571 0.726795 11.9997 1.62334 11.9997Z" />
</svg>
