<svg width="6" height="10" viewBox="0 0 6 10" fill="none" xmlns="http://www.w3.org/2000/svg">
<path d="M2.0918 6.59766C2.09961 6.13281 2.15234 5.76562 2.25 5.49609C2.34766 5.22656 2.54688 4.92773 2.84766 4.59961L3.61523 3.80859C3.94336 3.4375 4.10742 3.03906 4.10742 2.61328C4.10742 2.20312 4 1.88281 3.78516 1.65234C3.57031 1.41797 3.25781 1.30078 2.84766 1.30078C2.44922 1.30078 2.12891 1.40625 1.88672 1.61719C1.64453 1.82812 1.52344 2.11133 1.52344 2.4668H0.439453C0.447266 1.83398 0.671875 1.32422 1.11328 0.9375C1.55859 0.546875 2.13672 0.351562 2.84766 0.351562C3.58594 0.351562 4.16016 0.550781 4.57031 0.949219C4.98438 1.34375 5.19141 1.88672 5.19141 2.57812C5.19141 3.26172 4.875 3.93555 4.24219 4.59961L3.60352 5.23242C3.31836 5.54883 3.17578 6.00391 3.17578 6.59766H2.0918ZM2.04492 8.45508C2.04492 8.2793 2.09766 8.13281 2.20312 8.01562C2.3125 7.89453 2.47266 7.83398 2.68359 7.83398C2.89453 7.83398 3.05469 7.89453 3.16406 8.01562C3.27344 8.13281 3.32812 8.2793 3.32812 8.45508C3.32812 8.63086 3.27344 8.77734 3.16406 8.89453C3.05469 9.00781 2.89453 9.06445 2.68359 9.06445C2.47266 9.06445 2.3125 9.00781 2.20312 8.89453C2.09766 8.77734 2.04492 8.63086 2.04492 8.45508Z" />
</svg>
