<svg width="25" height="36" viewBox="0 0 25 36" fill="none" xmlns="http://www.w3.org/2000/svg">
<path d="M12.1573 36C5.53724 36 0.157349 30.4443 0.157349 23.6077C0.157349 17.9481 3.85288 13.0154 9.14897 11.6048C9.45065 11.527 9.76908 11.7173 9.8445 12.0289C9.91992 12.3404 9.73556 12.6693 9.43388 12.7471C4.64059 14.0193 1.29701 18.4846 1.29701 23.6077C1.29701 29.7866 6.16573 34.8231 12.1573 34.8231C18.149 34.8231 23.0177 29.7952 23.0177 23.6077C23.0177 18.5366 19.7076 14.0798 14.9646 12.7731C14.6629 12.6866 14.4786 12.3664 14.5624 12.0548C14.6462 11.7433 14.9562 11.5529 15.2579 11.6395C20.4953 13.0846 24.1573 18.0087 24.1573 23.6164C24.1573 30.4443 18.7775 36 12.1573 36ZM12.1573 32.5125C7.39757 32.5125 3.53444 28.5145 3.53444 23.6077C3.53444 18.701 7.40595 14.7029 12.1573 14.7029C16.9171 14.7029 20.7803 18.701 20.7803 23.6077C20.7803 28.5145 16.9171 32.5125 12.1573 32.5125ZM12.1573 15.8798C8.03444 15.8798 4.67411 19.3414 4.67411 23.6077C4.67411 27.8741 8.03444 31.3356 12.1573 31.3356C16.2803 31.3356 19.6406 27.8654 19.6406 23.6077C19.6406 19.35 16.2803 15.8798 12.1573 15.8798Z" fill="#44B1DF"/>
<path d="M12.1573 15.6378C11.9981 15.6378 11.8473 15.5685 11.7384 15.4474L5.135 8.07429C4.98416 7.90122 4.94226 7.65026 5.03444 7.43391C5.12662 7.21756 5.32774 7.0791 5.554 7.0791H18.7607C18.987 7.0791 19.1965 7.21756 19.2803 7.43391C19.3724 7.65026 19.3305 7.90122 19.1797 8.07429L12.5763 15.4474C12.4674 15.5685 12.3166 15.6378 12.1573 15.6378ZM6.86126 8.26468L12.1573 14.1839L17.4534 8.26468H6.86126Z" fill="#44B1DF"/>
<path d="M18.7608 8.26455H5.5541C5.3446 8.26455 5.15187 8.1434 5.05131 7.95301C4.95075 7.76263 4.95913 7.52897 5.07645 7.34724L7.3055 3.80782C7.41444 3.6434 7.59041 3.53955 7.78315 3.53955H16.5234C16.7161 3.53955 16.9005 3.6434 17.001 3.80782L19.2301 7.34724C19.3474 7.52897 19.3558 7.76263 19.2552 7.95301C19.163 8.1434 18.9703 8.26455 18.7608 8.26455ZM6.60997 7.07897H17.7049L16.2217 4.71647H8.10159L6.60997 7.07897Z" fill="#44B1DF"/>
<path d="M12.1573 15.6373C11.9143 15.6373 11.6964 15.4816 11.621 15.2479L9.12382 8.02194C9.06516 7.84021 9.0903 7.64118 9.19086 7.48541L11.6881 3.79887C11.797 3.63445 11.973 3.53925 12.1657 3.54791C12.3585 3.54791 12.5344 3.65175 12.635 3.81618L14.973 7.50271C15.0652 7.64983 15.0903 7.84021 15.04 8.01329L12.702 15.2393C12.6266 15.4729 12.4087 15.6373 12.1573 15.6373C12.1657 15.6373 12.1573 15.6373 12.1573 15.6373ZM10.297 7.90944L12.1406 13.2402L13.8668 7.90079L12.1406 5.18348L10.297 7.90944Z" fill="#44B1DF"/>
<path d="M12.1572 2.42308C11.8388 2.42308 11.5874 2.15481 11.5874 1.83461V0.588461C11.5874 0.259615 11.8472 0 12.1572 0C12.4673 0 12.7271 0.268269 12.7271 0.588461V1.82596C12.7271 2.15481 12.4757 2.42308 12.1572 2.42308Z" fill="#44B1DF"/>
<path d="M17.3278 2.44915C17.2272 2.44915 17.1266 2.42319 17.0345 2.36261C16.7663 2.19819 16.6741 1.83473 16.8417 1.54915L17.4367 0.519342C17.5959 0.242419 17.9479 0.147227 18.2244 0.320304C18.4926 0.484727 18.5847 0.848188 18.4171 1.13377L17.8222 2.16357C17.7132 2.3453 17.5205 2.44915 17.3278 2.44915Z" fill="#44B1DF"/>
<path d="M19.9338 5.72904C19.8081 5.72904 19.6824 5.68577 19.5735 5.59923C19.3304 5.40019 19.2885 5.02808 19.4813 4.76846L20.2774 3.73866C20.4701 3.47904 20.8304 3.44443 21.0818 3.64346C21.3249 3.8425 21.3668 4.21462 21.174 4.47423L20.3779 5.50404C20.2606 5.65116 20.1014 5.72904 19.9338 5.72904Z" fill="#44B1DF"/>
<path d="M6.98704 2.44921C6.7943 2.44921 6.60156 2.34537 6.49262 2.16363L5.88927 1.13383C5.73005 0.856904 5.81385 0.493443 6.08201 0.320366C6.35016 0.155943 6.70212 0.242481 6.86972 0.519404L7.47307 1.55787C7.63229 1.83479 7.54849 2.19825 7.28034 2.37133C7.18816 2.42325 7.0876 2.44921 6.98704 2.44921Z" fill="#44B1DF"/>
<path d="M4.38927 5.72877C4.22167 5.72877 4.05407 5.65089 3.94513 5.50377L3.14904 4.47397C2.94793 4.223 2.98982 3.85089 3.24122 3.6432C3.48424 3.4355 3.84457 3.47877 4.04569 3.73839L4.84178 4.7682C5.0429 5.01916 5.001 5.39127 4.7496 5.59897C4.64066 5.6855 4.51496 5.72877 4.38927 5.72877Z" fill="#44B1DF"/>
</svg>
