<svg width="106" height="192" viewBox="0 0 106 192" fill="none" xmlns="http://www.w3.org/2000/svg">
<path d="M35.619 155.45C38.679 151.979 51.684 155.093 53.622 159.279C56.886 166.375 38.73 186.847 38.73 186.847C38.73 186.847 30.366 161.372 35.619 155.45Z" fill="#FA5356"/>
<path opacity="0.32" d="M37.6589 160.352C39.7499 158.003 48.5729 160.096 49.8479 162.955C52.0919 167.754 39.7499 181.64 39.7499 181.64C39.7499 181.64 34.0889 164.385 37.6589 160.352Z" fill="#FFAE00"/>
<path opacity="0.32" d="M39.75 165.456C40.821 164.282 45.258 165.303 45.921 166.784C47.043 169.234 40.821 176.228 40.821 176.228C40.821 176.228 37.965 167.498 39.75 165.456Z" fill="white"/>
<path d="M53.3161 161.73C54.2851 157.237 67.1371 153.511 70.8601 156.165C77.2351 160.76 71.4211 187.511 71.4211 187.511C71.4211 187.511 51.6841 169.438 53.3161 161.73Z" fill="#FA5356"/>
<path opacity="0.32" d="M57.4981 164.997C58.1611 161.934 66.8821 159.432 69.3811 161.219C73.7161 164.333 69.7891 182.457 69.7891 182.457C69.7891 182.457 56.3761 170.255 57.4981 164.997Z" fill="#FFAE00"/>
<path opacity="0.32" d="M61.833 168.417C62.139 166.886 66.576 165.61 67.851 166.529C70.044 168.111 68.055 177.3 68.055 177.3C68.055 177.3 61.272 171.072 61.833 168.417Z" fill="white"/>
<path d="M44.799 161.526C46.992 157.442 60.354 157.442 63.21 161.066C68.055 167.243 55.05 191.339 55.05 191.339C55.05 191.339 41.076 168.52 44.799 161.526Z" fill="#FA5356"/>
<path opacity="0.32" d="M47.9098 165.865C49.3888 163.108 58.4668 163.108 60.4048 165.559C63.6688 169.745 54.8968 186.081 54.8968 186.081C54.8968 186.081 45.4108 170.562 47.9098 165.865Z" fill="#FFAE00"/>
<path opacity="0.32" d="M51.1739 170.306C51.9389 168.928 56.5289 168.928 57.4979 170.153C59.1809 172.246 54.6929 180.568 54.6929 180.568C54.6929 180.568 49.8989 172.706 51.1739 170.306Z" fill="white"/>
<path d="M53.2652 0C53.2652 0 3.4892 68.5616 33.6812 152.387L74.5832 152.796C74.5322 152.847 98.1452 62.6396 53.2652 0Z" fill="#C2E4F4"/>
<path d="M64.7401 162.444H43.6771C38.1691 162.444 33.6812 157.952 33.6812 152.438H74.7872C74.7872 157.952 70.2991 162.444 64.7401 162.444Z" fill="#719DB7"/>
<path d="M55.5602 162.087L55.4582 162.189C54.0302 163.517 51.8372 163.466 50.4092 162.087V96.9461C50.4092 95.5167 51.5312 94.3936 52.9592 94.3936C54.3872 94.3936 55.5092 95.5167 55.5092 96.9461V162.087H55.5602Z" fill="#FFAE00"/>
<path opacity="0.23" d="M53.6222 163.108V162.444C52.8572 104.961 53.2652 12.048 53.2652 0C53.2652 0 3.4892 68.5616 33.6812 152.387C33.6812 157.901 38.1692 162.393 43.6772 162.393H50.8682C52.2452 163.465 53.6222 163.108 53.6222 163.108Z" fill="#003C56"/>
<path d="M70.548 58.9243C72.7353 49.505 66.8802 40.0942 57.4702 37.9047C48.0603 35.7152 38.6589 41.5762 36.4716 50.9955C34.2844 60.4149 40.1395 69.8257 49.5494 72.0152C58.9593 74.2046 68.3607 68.3436 70.548 58.9243Z" fill="#719DB7"/>
<path d="M59.4254 66.1935C65.6344 62.9283 68.0235 55.2429 64.7615 49.0276C61.4995 42.8124 53.8218 40.4209 47.6128 43.6862C41.4038 46.9514 39.0147 54.6368 42.2767 60.8521C45.5386 67.0673 53.2164 69.4588 59.4254 66.1935Z" fill="white"/>
<path d="M54.1323 40.4323C54.1323 40.8407 53.7753 41.198 53.3673 41.198C52.9593 41.198 52.6023 40.8407 52.6023 40.4323C52.6023 40.0239 52.9593 39.6665 53.3673 39.6665C53.7753 39.6665 54.1323 39.9728 54.1323 40.4323Z" fill="#FFAE00"/>
<path d="M49.5932 40.9428C49.7462 41.3512 49.4912 41.7596 49.0832 41.9127C48.6752 42.0659 48.2672 41.8106 48.1142 41.4022C47.9612 40.9938 48.2162 40.5854 48.6242 40.4323C49.0322 40.3302 49.4402 40.5344 49.5932 40.9428Z" fill="#FFAE00"/>
<path d="M45.4623 42.8315C45.7173 43.1889 45.6153 43.6483 45.3093 43.9036C44.9523 44.1588 44.4933 44.0567 44.2383 43.7504C43.9833 43.3931 44.0853 42.9336 44.3913 42.6784C44.7483 42.4231 45.2073 42.5252 45.4623 42.8315Z" fill="#FFAE00"/>
<path d="M42.0961 45.9459C42.4531 46.2012 42.5041 46.6606 42.2491 47.018C41.9941 47.3753 41.5351 47.4264 41.1781 47.1711C40.8211 46.9159 40.7701 46.4564 41.0251 46.0991C41.2801 45.7417 41.7901 45.6907 42.0961 45.9459Z" fill="#FFAE00"/>
<path d="M39.9032 49.9277C40.3112 50.0809 40.5152 50.4893 40.4132 50.8977C40.2602 51.3061 39.8522 51.5103 39.4442 51.4082C39.0362 51.2551 38.8322 50.8466 38.9342 50.4382C39.0872 49.9788 39.4952 49.7746 39.9032 49.9277Z" fill="#FFAE00"/>
<path d="M38.9852 54.3694C39.3932 54.3694 39.7502 54.7267 39.7502 55.1352C39.7502 55.5436 39.3932 55.9009 38.9852 55.9009C38.5772 55.9009 38.2202 55.5436 38.2202 55.1352C38.2712 54.7267 38.5772 54.3694 38.9852 54.3694Z" fill="#FFAE00"/>
<path d="M39.5462 58.9128C39.9542 58.7597 40.3622 59.0149 40.5152 59.4234C40.6682 59.8318 40.4132 60.2402 40.0052 60.3933C39.5972 60.5465 39.1892 60.2912 39.0362 59.8828C38.9342 59.4744 39.1382 59.0149 39.5462 58.9128Z" fill="#FFAE00"/>
<path d="M41.4333 63.048C41.7903 62.7927 42.2493 62.8948 42.5043 63.2011C42.7593 63.5585 42.6573 64.018 42.3513 64.2732C41.9943 64.5285 41.5353 64.4264 41.2803 64.1201C41.0253 63.7627 41.1273 63.2522 41.4333 63.048Z" fill="#FFAE00"/>
<path d="M44.5441 66.3662C44.7991 66.0088 45.2581 65.9577 45.6151 66.213C45.9721 66.4683 46.0231 66.9277 45.7681 67.2851C45.5131 67.6424 45.0541 67.6935 44.6971 67.4382C44.3401 67.183 44.2891 66.7235 44.5441 66.3662Z" fill="#FFAE00"/>
<path d="M48.5222 68.6125C48.6752 68.204 49.0832 67.9998 49.4912 68.1019C49.8992 68.2551 50.1032 68.6635 50.0012 69.0719C49.8482 69.4803 49.4402 69.6845 49.0322 69.5824C48.5732 69.4293 48.3692 69.0209 48.5222 68.6125Z" fill="#FFAE00"/>
<path d="M53.7242 70.2461C54.1467 70.2461 54.4892 69.9033 54.4892 69.4804C54.4892 69.0574 54.1467 68.7146 53.7242 68.7146C53.3017 68.7146 52.9592 69.0574 52.9592 69.4804C52.9592 69.9033 53.3017 70.2461 53.7242 70.2461Z" fill="#FFAE00"/>
<path d="M57.4982 68.9697C57.3452 68.5613 57.6002 68.1529 58.0082 67.9998C58.4162 67.8466 58.8243 68.1019 58.9773 68.5103C59.1303 68.9187 58.8753 69.3271 58.4673 69.4802C58.0593 69.5823 57.6002 69.3781 57.4982 68.9697Z" fill="#FFAE00"/>
<path d="M61.6291 67.0297C61.3741 66.6724 61.4762 66.2129 61.7822 65.9577C62.1392 65.7024 62.5981 65.8045 62.8531 66.1108C63.1081 66.4682 63.0061 66.9276 62.7001 67.1829C62.3431 67.4892 61.8331 67.3871 61.6291 67.0297Z" fill="#FFAE00"/>
<path d="M64.9442 63.9668C64.5872 63.7115 64.5362 63.2521 64.7912 62.8947C65.0462 62.5374 65.5052 62.4863 65.8622 62.7416C66.2192 62.9968 66.2702 63.4563 66.0152 63.8136C65.7602 64.1199 65.3012 64.222 64.9442 63.9668Z" fill="#FFAE00"/>
<path d="M67.1883 59.9848C66.7803 59.8316 66.5763 59.4232 66.6783 59.0148C66.8313 58.6064 67.2393 58.4022 67.6473 58.5043C68.0553 58.6574 68.2593 59.0659 68.1573 59.4743C68.0043 59.8827 67.5453 60.1379 67.1883 59.9848Z" fill="#FFAE00"/>
<path d="M68.0553 55.5433C67.6473 55.5433 67.2903 55.1859 67.2903 54.7775C67.2903 54.3691 67.6473 54.0117 68.0553 54.0117C68.4633 54.0117 68.8203 54.3691 68.8203 54.7775C68.8203 55.1859 68.4633 55.5433 68.0553 55.5433Z" fill="#FFAE00"/>
<path d="M67.5451 50.9998C67.1371 51.1529 66.7291 50.8977 66.5761 50.4893C66.4231 50.0809 66.6781 49.6724 67.0861 49.5193C67.4941 49.3661 67.9021 49.6214 68.0551 50.0298C68.1571 50.4382 67.9021 50.8466 67.5451 50.9998Z" fill="#FFAE00"/>
<path d="M65.6071 46.8648C65.2501 47.12 64.7911 47.0179 64.5361 46.7116C64.2811 46.3543 64.3831 45.8948 64.6891 45.6395C65.0461 45.3843 65.5051 45.4864 65.7601 45.7927C66.0151 46.1501 65.9641 46.6095 65.6071 46.8648Z" fill="#FFAE00"/>
<path d="M62.5472 43.5463C62.2922 43.9037 61.8332 43.9547 61.4762 43.6995C61.1192 43.4442 61.0682 42.9847 61.3232 42.6274C61.5782 42.27 62.0372 42.219 62.3942 42.4742C62.7002 42.6784 62.8022 43.189 62.5472 43.5463Z" fill="#FFAE00"/>
<path d="M58.5692 41.3002C58.4162 41.7086 58.0082 41.9128 57.6002 41.8107C57.1922 41.6575 56.9882 41.2491 57.0902 40.8407C57.2432 40.4323 57.6512 40.2281 58.0592 40.3302C58.4672 40.4834 58.7222 40.8918 58.5692 41.3002Z" fill="#FFAE00"/>
<path opacity="0.32" d="M55.3562 45.3843C55.3562 45.3843 44.0342 43.7507 43.5242 54.9309L55.3562 45.3843Z" fill="#C2E4F4"/>
<path d="M96.8702 161.015L74.8892 139.727L78.3062 95.6188C78.3572 94.802 79.2752 94.2915 80.0402 94.751C87.6392 99.2945 119.157 121.195 99.5222 160.556C99.0122 161.577 97.6352 161.832 96.8702 161.015Z" fill="#F99746"/>
<path d="M9.60913 161.475L31.4881 140.289L28.1221 96.4869C28.0711 95.5169 26.9491 94.9554 26.1331 95.4659C18.1261 100.316 -12.4739 122.166 6.85513 161.066C7.41613 162.036 8.79313 162.292 9.60913 161.475Z" fill="#F99746"/>
</svg>
