<svg width="14" height="16" viewBox="0 0 14 16" fill="none" xmlns="http://www.w3.org/2000/svg">
<path d="M11 10C10.1875 10 9.46875 10.3125 8.90625 10.8438L5.84375 8.90625C6.03125 8.34375 6.03125 7.6875 5.84375 7.125L8.90625 5.1875C9.46875 5.6875 10.1875 6 11 6C12.6562 6 14 4.65625 14 3C14 1.34375 12.6562 0 11 0C9.34375 0 8 1.34375 8 3C8 3.3125 8.03125 3.625 8.125 3.90625L5.0625 5.84375C4.5 5.3125 3.78125 5 3 5C1.34375 5 0 6.34375 0 8C0 9.65625 1.34375 11 3 11C3.78125 11 4.5 10.6875 5.0625 10.1875L8.125 12.125C8.03125 12.4062 8 12.7188 8 13C8 14.6562 9.34375 16 11 16C12.6562 16 14 14.6562 14 13C14 11.3438 12.6562 10 11 10ZM11 1.5C11.8125 1.5 12.5 2.1875 12.5 3C12.5 3.84375 11.8125 4.5 11 4.5C10.1562 4.5 9.5 3.84375 9.5 3C9.5 2.1875 10.1562 1.5 11 1.5ZM3 9.5C2.15625 9.5 1.5 8.84375 1.5 8C1.5 7.1875 2.15625 6.5 3 6.5C3.8125 6.5 4.5 7.1875 4.5 8C4.5 8.84375 3.8125 9.5 3 9.5ZM11 14.5C10.1562 14.5 9.5 13.8438 9.5 13C9.5 12.1875 10.1562 11.5 11 11.5C11.8125 11.5 12.5 12.1875 12.5 13C12.5 13.8438 11.8125 14.5 11 14.5Z"/>
</svg>
