<svg width="37" height="34" viewBox="0 0 37 34" fill="none" xmlns="http://www.w3.org/2000/svg">
<g clip-path="url(#clip0)">
<path d="M21.9194 13.1796C21.8419 13.1796 21.7574 13.1655 21.6869 13.1373L18.1644 11.8827L14.6419 13.1373C14.4235 13.2148 14.184 13.1796 13.9938 13.0457C13.8036 12.9117 13.6979 12.6862 13.7049 12.4536L13.8106 8.71108L11.528 5.74384C11.3871 5.56059 11.3449 5.32095 11.4153 5.09541C11.4858 4.86987 11.6619 4.70072 11.8873 4.63729L15.4732 3.58007L17.5867 0.493009C17.7206 0.302711 17.9319 0.189941 18.1644 0.189941C18.3969 0.189941 18.6153 0.302711 18.7421 0.493009L20.8556 3.58007L24.4415 4.63729C24.667 4.70072 24.8431 4.87692 24.9135 5.09541C24.984 5.3139 24.9417 5.56059 24.8008 5.74384L22.5182 8.71108L22.6239 12.4536C22.6309 12.6862 22.5182 12.9047 22.3351 13.0457C22.2082 13.1373 22.0673 13.1796 21.9194 13.1796ZM13.254 5.7086L15.0646 8.06266C15.1632 8.18953 15.2126 8.35163 15.2126 8.51374L15.128 11.481L17.9249 10.4872C18.0799 10.4308 18.2419 10.4308 18.3969 10.4872L21.1938 11.481L21.1092 8.51374C21.1022 8.35163 21.1585 8.19657 21.2572 8.06266L23.0607 5.7086L20.2145 4.86987C20.0595 4.82759 19.9257 4.72891 19.8341 4.595L18.1574 2.14931L16.4807 4.595C16.3891 4.72891 16.2552 4.82759 16.1002 4.86987L13.254 5.7086Z" fill="#6BE0FA"/>
<path d="M28.4079 6.70274C28.26 6.70274 28.1191 6.6534 27.9922 6.56882C27.802 6.43491 27.6964 6.20937 27.7034 5.98383L27.7457 4.40506L26.7875 3.15755C26.6466 2.9743 26.6044 2.73466 26.6748 2.50912C26.7453 2.29063 26.9214 2.11443 27.1468 2.051L28.6615 1.60697L29.5562 0.303068C29.6901 0.11277 29.9014 0 30.1339 0C30.3664 0 30.5848 0.11277 30.7116 0.303068L31.6063 1.60697L33.121 2.051C33.3464 2.11443 33.5226 2.29063 33.593 2.50912C33.6635 2.72761 33.6212 2.9743 33.4803 3.15755L32.5222 4.40506L32.5644 5.98383C32.5715 6.21642 32.4658 6.43491 32.2756 6.56882C32.0854 6.70274 31.8459 6.73798 31.6275 6.66045L30.141 6.13184L28.6545 6.66045C28.5629 6.69569 28.4854 6.70274 28.4079 6.70274ZM30.1269 4.68698C30.2044 4.68698 30.2889 4.70108 30.3594 4.72927L31.1132 4.9971L31.092 4.19362C31.085 4.03151 31.1414 3.87645 31.24 3.74254L31.7261 3.10821L30.9582 2.88267C30.8032 2.84038 30.6693 2.74171 30.5778 2.60779L30.1269 1.94527L29.676 2.60779C29.5844 2.74171 29.4506 2.84038 29.2956 2.88267L28.5277 3.10821L29.0138 3.74254C29.1124 3.8694 29.1617 4.03151 29.1617 4.19362L29.1406 4.9971L29.8944 4.72927C29.9719 4.70108 30.0494 4.68698 30.1269 4.68698Z" fill="#6BE0FA"/>
<path d="M7.9069 6.70274C7.8294 6.70274 7.74486 6.68864 7.67441 6.66045L6.18791 6.13184L4.70142 6.66045C4.48302 6.73798 4.24349 6.70274 4.05328 6.56882C3.86306 6.43491 3.75739 6.20937 3.76443 5.98383L3.8067 4.40506L2.84858 3.15755C2.70768 2.9743 2.66541 2.73466 2.73586 2.50912C2.80631 2.29063 2.98243 2.11443 3.20787 2.051L4.72255 1.60697L5.61022 0.303068C5.73703 0.11277 5.95543 0 6.18791 0C6.4204 0 6.63879 0.11277 6.7656 0.303068L7.66032 1.60697L9.175 2.051C9.40044 2.11443 9.57656 2.29063 9.64701 2.50912C9.71746 2.72761 9.67519 2.9743 9.53429 3.15755L8.57617 4.40506L8.61844 5.98383C8.62549 6.21642 8.51981 6.43491 8.3296 6.57587C8.20279 6.66045 8.05484 6.70274 7.9069 6.70274ZM6.18791 4.68698C6.26541 4.68698 6.34995 4.70108 6.4204 4.72927L7.17422 4.9971L7.15308 4.19362C7.14604 4.03151 7.2024 3.87645 7.30103 3.74254L7.78713 3.10821L7.01923 2.88267C6.86423 2.84038 6.73038 2.74171 6.63879 2.60779L6.18791 1.94527L5.73703 2.60779C5.64545 2.74171 5.51159 2.84038 5.3566 2.88267L4.5887 3.10821L5.0748 3.74254C5.17343 3.8694 5.22275 4.03151 5.22275 4.19362L5.20161 4.9971L5.95543 4.72927C6.02588 4.70108 6.11042 4.68698 6.18791 4.68698Z" fill="#6BE0FA"/>
<path d="M18.1574 29.0872C18.1151 29.0872 18.0658 29.0802 18.0236 29.0731C17.9813 29.0661 17.932 29.052 17.8897 29.0308C17.8474 29.0167 17.8052 28.9886 17.7699 28.9674C17.7347 28.9392 17.6924 28.911 17.6643 28.8828C17.629 28.8476 17.6009 28.8123 17.5797 28.7771C17.5515 28.7419 17.5304 28.6996 17.5163 28.6573C17.5022 28.615 17.4881 28.5727 17.4741 28.5234C17.467 28.4811 17.46 28.4318 17.46 28.3895C17.46 28.3472 17.467 28.2978 17.4741 28.2555C17.4811 28.2133 17.4952 28.1639 17.5163 28.1216C17.5304 28.0793 17.5586 28.0371 17.5797 28.0018C17.6079 27.9666 17.6361 27.9243 17.6643 27.8961C17.6995 27.8609 17.7347 27.8327 17.7699 27.8115C17.8052 27.7833 17.8474 27.7622 17.8897 27.7481C17.932 27.734 17.9742 27.7199 18.0236 27.7058C18.1151 27.6847 18.2067 27.6847 18.2983 27.7058C18.3406 27.7128 18.3899 27.7269 18.4322 27.7481C18.4744 27.7622 18.5167 27.7904 18.5519 27.8115C18.5872 27.8397 18.6294 27.8679 18.6576 27.8961C18.6928 27.9313 18.721 27.9666 18.7422 28.0018C18.7703 28.0371 18.7915 28.0793 18.8056 28.1216C18.8196 28.1639 18.8337 28.2062 18.8478 28.2555C18.8549 28.2978 18.8619 28.3472 18.8619 28.3895C18.8619 28.4318 18.8549 28.4811 18.8478 28.5234C18.8408 28.5657 18.8267 28.615 18.8056 28.6573C18.7915 28.6996 18.7633 28.7419 18.7422 28.7771C18.714 28.8123 18.6858 28.8546 18.6576 28.8828C18.6224 28.9181 18.5872 28.9463 18.5519 28.9674C18.5167 28.9956 18.4744 29.0167 18.4322 29.0308C18.3899 29.0449 18.3476 29.059 18.2983 29.0731C18.249 29.0802 18.1997 29.0872 18.1574 29.0872Z" fill="#6BE0FA"/>
<path d="M18.1574 26.7688C17.7699 26.7688 17.4529 26.4516 17.4529 26.064V14.4558C17.4529 14.0681 17.7699 13.751 18.1574 13.751C18.5449 13.751 18.8619 14.0681 18.8619 14.4558V26.064C18.8619 26.4516 18.5449 26.7688 18.1574 26.7688Z" fill="#6BE0FA"/>
<path d="M30.0916 22.2864C30.0564 22.2864 30.0212 22.2864 29.9789 22.2794C29.7464 22.2441 29.5562 22.0961 29.4505 21.8847L28.1965 19.2205L25.5406 17.9589C25.3292 17.8602 25.1813 17.6629 25.146 17.4303C25.1108 17.1977 25.1883 16.9721 25.3574 16.81L27.492 14.7872L27.8724 11.8693C27.9006 11.6367 28.0415 11.4394 28.2529 11.3337C28.4572 11.2279 28.7038 11.235 28.9081 11.3407L31.4936 12.7503L34.3891 12.2076C34.6145 12.1653 34.854 12.2358 35.0161 12.405C35.1781 12.5671 35.2556 12.8067 35.2133 13.0323L34.6709 15.929L36.0799 18.5157C36.1926 18.7201 36.1926 18.9668 36.0869 19.1711C35.9812 19.3755 35.784 19.5165 35.5515 19.5517L32.6349 19.9323L30.6059 22.0609C30.4721 22.2089 30.2818 22.2864 30.0916 22.2864ZM27.0623 17.1272L29.0208 18.0575C29.1687 18.128 29.2814 18.2478 29.3519 18.3888L30.2818 20.3482L31.7683 18.7765C31.8811 18.6566 32.029 18.5862 32.191 18.565L34.3398 18.2831L33.3041 16.3801C33.2266 16.2391 33.1985 16.077 33.2337 15.9149L33.6282 13.7864L31.5006 14.1811C31.3386 14.2093 31.1766 14.1881 31.0357 14.1106L29.1335 13.0745L28.8517 15.2242C28.8306 15.3863 28.7531 15.5343 28.6404 15.6471L27.0623 17.1272Z" fill="#6BE0FA"/>
<path d="M19.3972 34.0002C19.3761 34.0002 19.3479 34.0002 19.3268 33.9932C18.9393 33.9509 18.6575 33.6055 18.6998 33.2179C19.1577 28.7565 21.3064 25.3663 23.0254 23.3153C24.8853 21.0952 26.6395 19.9111 26.7099 19.8618C27.034 19.6433 27.4708 19.7349 27.6821 20.0591C27.9005 20.3833 27.8089 20.8203 27.4849 21.0317C27.4215 21.074 25.8222 22.1453 24.0962 24.2175C22.5041 26.1275 20.5103 29.2569 20.0876 33.3659C20.0594 33.7324 19.7565 34.0002 19.3972 34.0002Z" fill="#6BE0FA"/>
<path d="M6.22305 22.2861C6.03284 22.2861 5.84967 22.2085 5.71581 22.0676L3.69389 19.932L0.777258 19.5514C0.544773 19.5232 0.347513 19.3822 0.241837 19.1708C0.136162 18.9664 0.143207 18.7197 0.248882 18.5153L1.65788 15.9287L1.11542 13.0319C1.07315 12.8064 1.1436 12.5667 1.31268 12.4046C1.47471 12.2425 1.71424 12.165 1.93968 12.2073L4.83518 12.75L7.4207 11.3404C7.62501 11.2276 7.87158 11.2276 8.07589 11.3333C8.28019 11.439 8.42109 11.6364 8.45632 11.869L8.83675 14.7869L10.9714 16.8097C11.1405 16.9718 11.218 17.2044 11.1827 17.4299C11.1475 17.6625 10.9996 17.8528 10.7882 17.9585L8.11816 19.2201L6.8571 21.8773C6.75847 22.0887 6.56121 22.2367 6.32873 22.272C6.2935 22.279 6.25828 22.2861 6.22305 22.2861ZM1.96786 18.2827L4.11659 18.5647C4.27863 18.5858 4.42657 18.6633 4.53929 18.7761L6.03284 20.3478L6.95573 18.3955C7.02618 18.2475 7.14595 18.1347 7.28685 18.0642L9.24536 17.1268L7.67432 15.6327C7.55456 15.5199 7.48411 15.3719 7.46297 15.2098L7.18117 13.0601L5.27902 14.0962C5.13812 14.1737 4.96904 14.2019 4.81405 14.1666L2.68646 13.772L3.08098 15.9005C3.10916 16.0626 3.08802 16.2247 3.01053 16.3657L1.96786 18.2827Z" fill="#6BE0FA"/>
<path d="M16.9174 34.0001C16.5581 34.0001 16.2552 33.7322 16.22 33.3657C15.7973 29.2567 13.8035 26.1273 12.2114 24.2173C10.4853 22.1522 8.89316 21.0809 8.82271 21.0316C8.49864 20.8131 8.4141 20.3761 8.62545 20.0589C8.84385 19.7347 9.28064 19.6501 9.59766 19.8616C9.66811 19.9109 11.4294 21.095 13.2822 23.3152C15.0012 25.3732 17.1499 28.7633 17.6078 33.2177C17.6501 33.6054 17.3683 33.9507 16.9808 33.993C16.9667 34.0001 16.9386 34.0001 16.9174 34.0001Z" fill="#6BE0FA"/>
<path d="M23.6806 33.8732C23.582 33.8732 23.4833 33.8521 23.3847 33.8098C23.0324 33.6477 22.8775 33.2319 23.0395 32.8795C24.1103 30.5395 25.8998 29.0946 27.2172 28.2912C28.6051 27.4454 29.7393 27.1282 29.8591 27.093C30.2325 26.9943 30.6199 27.2128 30.7186 27.5934C30.8172 27.9669 30.5988 28.3546 30.2184 28.4533C30.2113 28.4533 29.1827 28.7352 27.9428 29.4893C26.8015 30.1871 25.2375 31.4417 24.3146 33.4574C24.2019 33.7182 23.9483 33.8732 23.6806 33.8732Z" fill="#6BE0FA"/>
<path d="M13.3034 33.8731C13.0357 33.8731 12.7821 33.718 12.6623 33.4643C11.7394 31.4485 10.1754 30.194 9.03414 29.4962C7.79422 28.7421 6.77269 28.4601 6.7586 28.4601C6.38522 28.3615 6.15978 27.9738 6.25841 27.6003C6.35704 27.2267 6.74451 27.0012 7.1179 27.0998C7.24471 27.1351 8.37191 27.4452 9.75978 28.298C11.0702 29.0945 12.8596 30.5393 13.9375 32.8863C14.0995 33.2388 13.9445 33.6546 13.5923 33.8167C13.5007 33.8519 13.395 33.8731 13.3034 33.8731Z" fill="#6BE0FA"/>
<path d="M32.9096 24.936C32.5221 24.936 32.2051 24.6189 32.2051 24.2312V23.6462C32.2051 23.2586 32.5221 22.9414 32.9096 22.9414C33.2971 22.9414 33.6141 23.2586 33.6141 23.6462V24.2312C33.6141 24.6189 33.2971 24.936 32.9096 24.936Z" fill="#6BE0FA"/>
<path d="M32.9096 28.1147C32.5221 28.1147 32.2051 27.7976 32.2051 27.4099V26.8249C32.2051 26.4373 32.5221 26.1201 32.9096 26.1201C33.2971 26.1201 33.6141 26.4373 33.6141 26.8249V27.4099C33.6141 27.7976 33.2971 28.1147 32.9096 28.1147Z" fill="#6BE0FA"/>
<path d="M34.7906 26.2329H34.2058C33.8184 26.2329 33.5013 25.9157 33.5013 25.5281C33.5013 25.1404 33.8184 24.8232 34.2058 24.8232H34.7906C35.1781 24.8232 35.4951 25.1404 35.4951 25.5281C35.4951 25.9157 35.1781 26.2329 34.7906 26.2329Z" fill="#6BE0FA"/>
<path d="M31.6203 26.2329H31.0356C30.6481 26.2329 30.3311 25.9157 30.3311 25.5281C30.3311 25.1404 30.6481 24.8232 31.0356 24.8232H31.6203C32.0078 24.8232 32.3248 25.1404 32.3248 25.5281C32.3177 25.9157 32.0078 26.2329 31.6203 26.2329Z" fill="#6BE0FA"/>
<path d="M3.40506 24.936C3.01759 24.936 2.70056 24.6189 2.70056 24.2312V23.6462C2.70056 23.2586 3.01759 22.9414 3.40506 22.9414C3.79254 22.9414 4.10956 23.2586 4.10956 23.6462V24.2312C4.10252 24.6189 3.79254 24.936 3.40506 24.936Z" fill="#6BE0FA"/>
<path d="M3.40506 28.1147C3.01759 28.1147 2.70056 27.7976 2.70056 27.4099V26.8249C2.70056 26.4373 3.01759 26.1201 3.40506 26.1201C3.79254 26.1201 4.10956 26.4373 4.10956 26.8249V27.4099C4.10252 27.7976 3.79254 28.1147 3.40506 28.1147Z" fill="#6BE0FA"/>
<path d="M5.2791 26.2329H4.69437C4.30689 26.2329 3.98987 25.9157 3.98987 25.5281C3.98987 25.1404 4.30689 24.8232 4.69437 24.8232H5.2791C5.66658 24.8232 5.98361 25.1404 5.98361 25.5281C5.98361 25.9157 5.67363 26.2329 5.2791 26.2329Z" fill="#6BE0FA"/>
<path d="M2.10882 26.2329H1.52408C1.13661 26.2329 0.81958 25.9157 0.81958 25.5281C0.81958 25.1404 1.13661 24.8232 1.52408 24.8232H2.10882C2.49629 24.8232 2.81332 25.1404 2.81332 25.5281C2.81332 25.9157 2.49629 26.2329 2.10882 26.2329Z" fill="#6BE0FA"/>
</g>

</svg>
