<svg width="30" height="38" viewBox="0 0 30 38" fill="none" xmlns="http://www.w3.org/2000/svg">
<path d="M13.6758 11.9121C13.265 11.9121 12.9288 11.5781 12.9288 11.1699C12.9288 10.7617 13.265 10.4277 13.6758 10.4277C14.0867 10.4277 14.4229 10.7543 14.4229 11.1699V11.1773C14.4229 11.5855 14.0942 11.9121 13.6758 11.9121Z" fill="#B8DE70"/>
<path d="M10.8746 27.4683C10.4637 27.4683 10.1276 27.1343 10.1276 26.7261C10.1276 26.3179 10.4637 25.9839 10.8746 25.9839C11.2854 25.9839 11.6216 26.3179 11.6216 26.7261C11.6216 27.1343 11.2854 27.4683 10.8746 27.4683Z" fill="#B8DE70"/>
<path d="M10.7027 20.8408C10.2918 20.8408 9.95569 20.5068 9.95569 20.0986C9.95569 19.6904 10.2918 19.3564 10.7027 19.3564C11.1136 19.3564 11.4497 19.683 11.4497 20.0986V20.1061C11.4497 20.5068 11.1136 20.8408 10.7027 20.8408Z" fill="#B8DE70"/>
<path d="M17.0523 27.8101C16.6415 27.8101 16.3053 27.4761 16.3053 27.0679C16.3053 26.6597 16.6415 26.3257 17.0523 26.3257C17.4632 26.3257 17.7993 26.6522 17.7993 27.0679V27.0753C17.7993 27.4835 17.4706 27.8101 17.0523 27.8101Z" fill="#B8DE70"/>
<path d="M17.4857 13.6934C17.0748 13.6934 16.7386 13.3594 16.7386 12.9512C16.7386 12.543 17.0748 12.209 17.4857 12.209C17.8965 12.209 18.2327 12.5355 18.2327 12.9512V12.9586C18.2327 13.3594 17.904 13.6934 17.4857 13.6934Z" fill="#B8DE70"/>
<path d="M23.4393 30.2886C23.0284 30.2886 22.6923 30.6226 22.6923 31.0308C22.6923 31.439 23.0284 31.7729 23.4393 31.7729H23.4467C23.8576 31.7729 24.1938 31.439 24.1938 31.0308C24.1938 30.6226 23.8501 30.2886 23.4393 30.2886Z" fill="#B8DE70"/>
<path d="M29.7748 30.4965L23.1861 24.0469H27.9371C28.2434 24.0469 28.5123 23.8613 28.6319 23.5867C28.7514 23.3121 28.6842 22.9855 28.4675 22.7777L22.3868 16.8254H25.2628C25.5691 16.8254 25.838 16.6398 25.9576 16.3652C26.0771 16.0906 26.0099 15.7641 25.7932 15.5563L18.2633 8.18633L17.9272 5.99688L19.6603 4.23789C19.8545 4.0375 19.9217 3.75547 19.8395 3.48828C19.7574 3.22852 19.5258 3.03555 19.2569 2.98359L16.8067 2.57539L15.6637 0.400781C15.5367 0.155859 15.2828 0 14.9989 0C14.715 0 14.4685 0.155859 14.3341 0.400781L13.1837 2.58281L10.7409 2.99102C10.4645 3.03555 10.2404 3.22852 10.1583 3.4957C10.0686 3.75547 10.1433 4.04492 10.3375 4.24531L12.0706 6.0043L11.7494 8.19375L4.21951 15.5563C4.00288 15.7641 3.93565 16.0906 4.05517 16.3652C4.17469 16.6398 4.44362 16.8254 4.74989 16.8254H7.96951L1.88884 22.7777C1.6722 22.9855 1.60497 23.3121 1.72449 23.5867C1.84402 23.8613 2.11294 24.0469 2.41922 24.0469H6.82659L0.223 30.4965C0.0063664 30.7043 -0.0608647 31.0309 0.0586572 31.3055C0.178179 31.5801 0.447104 31.7656 0.753378 31.7656H5.25786C5.57161 32.6562 6.4232 33.302 7.4242 33.302C8.42519 33.302 9.28426 32.6562 9.59053 31.7656H11.1817V36.857C11.1817 37.4879 11.6971 37.9926 12.3321 37.9926H17.6807C18.3156 37.9926 18.8236 37.4805 18.8236 36.857V31.7656H20.1085C20.5193 31.7656 20.8555 31.4316 20.8555 31.0234C20.8555 30.6152 20.5193 30.2812 20.1085 30.2812H9.58306C9.26932 29.3906 8.41772 28.7449 7.41673 28.7449C6.41573 28.7449 5.55667 29.3906 5.25039 30.2812H2.56862L8.93316 24.0469H10.4645C10.8754 24.0469 11.2115 23.7129 11.2115 23.3047C11.2115 22.8965 10.8754 22.5625 10.4645 22.5625H4.21951L10.0836 16.8254H11.3087C11.6224 17.716 12.474 18.3617 13.475 18.3617C14.476 18.3617 15.3351 17.716 15.6413 16.8254H20.2429L26.107 22.5625H22.962C22.6483 21.6719 21.7967 21.0262 20.7957 21.0262C19.7947 21.0262 18.9356 21.6719 18.6294 22.5625H14.8943C14.4835 22.5625 14.1473 22.8965 14.1473 23.3047C14.1473 23.7129 14.4835 24.0469 14.8943 24.0469H18.6294C18.9431 24.9375 19.7947 25.5832 20.7957 25.5832C21.3111 25.5832 21.7818 25.4125 22.1627 25.1305L27.4217 30.2738H26.7643C26.3535 30.2738 26.0173 30.6078 26.0173 31.016C26.0173 31.4242 26.3535 31.7582 26.7643 31.7582H29.2444C29.5507 31.7582 29.8196 31.5727 29.9391 31.298C30.0587 31.0309 29.9914 30.7117 29.7748 30.4965ZM17.3221 31.773V36.5156H12.6682V31.773H17.3221ZM7.41673 30.2293C7.85746 30.2293 8.21603 30.5855 8.21603 31.0234C8.21603 31.4613 7.85746 31.8176 7.41673 31.8176C6.97599 31.8176 6.61742 31.4613 6.61742 31.0234C6.61742 30.5855 6.97599 30.2293 7.41673 30.2293ZM13.8037 3.97812C14.0353 3.94102 14.2295 3.79258 14.3415 3.59219L14.9989 2.34531L15.6563 3.59219C15.7608 3.8 15.9625 3.94102 16.1941 3.97812L17.591 4.21562L16.5975 5.225C16.4332 5.38828 16.3585 5.62578 16.3958 5.85586L16.605 7.25117L15.3351 6.62773C15.1259 6.52383 14.8794 6.52383 14.6702 6.62773L13.4003 7.25859L13.6095 5.86328C13.6468 5.6332 13.5646 5.40312 13.4078 5.23984L12.4142 4.23047L13.8037 3.97812ZM13.4825 16.8773C13.0417 16.8773 12.6832 16.5211 12.6832 16.0832C12.6832 15.6453 13.0417 15.2891 13.4825 15.2891C13.9232 15.2891 14.2818 15.6453 14.2818 16.0832C14.2818 16.5211 13.9232 16.8773 13.4825 16.8773ZM15.6488 15.341C15.3351 14.4504 14.4835 13.8047 13.4825 13.8047C12.4815 13.8047 11.6224 14.4504 11.3161 15.341H6.56513L12.8849 9.15117L14.9989 8.10469L17.1129 9.14375L23.4401 15.3336L15.6488 15.341ZM20.8032 24.1062C20.3624 24.1062 20.0039 23.75 20.0039 23.3121C20.0039 22.8742 20.3624 22.518 20.8032 22.518C21.2439 22.518 21.6025 22.8742 21.6025 23.3121C21.6025 23.75 21.2439 24.1062 20.8032 24.1062Z" fill="#B8DE70"/>
</svg>
