<svg width="16" height="14" viewBox="0 0 16 14" fill="none" xmlns="http://www.w3.org/2000/svg">
<path d="M0 1.5V12.5C0 13.3438 0.65625 14 1.5 14H14.5C15.3125 14 16 13.3438 16 12.5V1.5C16 0.6875 15.3125 0 14.5 0H1.5C0.65625 0 0 0.6875 0 1.5ZM14.75 8.5H6.15625V5.5H14.75V8.5ZM14.75 9.75V12.375C14.75 12.5938 14.5625 12.75 14.375 12.75H6.15625V9.75H14.75ZM1.25 5.5H4.90625V8.5H1.25V5.5ZM6.15625 4.25V1.25H14.375C14.5625 1.25 14.75 1.4375 14.75 1.625V4.25H6.15625ZM4.90625 1.25V4.25H1.25V1.625C1.25 1.4375 1.40625 1.25 1.625 1.25H4.90625ZM1.25 9.75H4.90625V12.75H1.625C1.40625 12.75 1.25 12.5938 1.25 12.375V9.75Z" fill="#2C504C"/>
</svg>
