<svg width="16" height="14" viewBox="0 0 16 14" fill="none" xmlns="http://www.w3.org/2000/svg">
<path d="M14.5 0H1.5C0.65625 0 0 0.6875 0 1.5V12.5C0 13.3438 0.65625 14 1.5 14H14.5C15.3125 14 16 13.3438 16 12.5V1.5C16 0.6875 15.3125 0 14.5 0ZM6.15625 1.25H9.8125V4.25H6.15625V1.25ZM6.15625 5.5H9.8125V8.5H6.15625V5.5ZM4.90625 12.75H1.625C1.40625 12.75 1.25 12.5938 1.25 12.375V9.75H4.90625V12.75ZM4.90625 8.5H1.25V5.5H4.90625V8.5ZM4.90625 4.25H1.25V1.625C1.25 1.4375 1.40625 1.25 1.625 1.25H4.90625V4.25ZM9.8125 12.75H6.15625V9.75H9.8125V12.75ZM14.75 12.75H11.0625V9.75H14.75V12.75ZM14.75 8.5H11.0625V5.5H14.75V8.5ZM14.75 4.25H11.0625V1.25H14.75V4.25Z" fill="#2C504C"/>
</svg>
