<svg width="37" height="35" viewBox="0 0 37 35" fill="none" xmlns="http://www.w3.org/2000/svg">
<g clip-path="url(#clip0)">
<path d="M27.6637 20.7285H14.6699L21.8488 16.7692C22.6012 16.3517 22.8683 15.4123 22.4535 14.6678L21.3848 12.7682C20.9629 12.0237 20.0137 11.7593 19.2613 12.1698L16.273 13.8189C16.6246 13.1231 16.8426 12.4342 16.9269 11.7732C17.0605 10.6668 16.8074 9.67178 16.1957 8.8855C15.1973 7.61214 13.4535 7.18768 11.9558 7.85567C11.6887 7.97397 11.5691 8.28013 11.6887 8.54454C11.8082 8.80896 12.1176 8.92725 12.3848 8.80896C13.4394 8.34275 14.6629 8.635 15.359 9.52566C16.3644 10.806 15.9777 12.803 14.3324 14.8905L13.6926 15.2384L13.2285 14.4243C13.109 14.2155 12.9543 14.0276 12.7785 13.8815C12.891 13.2205 13.2004 12.3577 13.5449 11.801C13.6996 11.5575 13.6152 11.2304 13.3691 11.0843C13.123 10.9312 12.7926 11.0147 12.6449 11.2583C12.2723 11.8636 11.9488 12.6986 11.7871 13.4362C11.3441 13.3666 10.8941 13.4432 10.5004 13.6589L10.3176 13.7563C10.2473 12.2533 10.4793 10.9869 11.0137 10.0823C11.1613 9.83182 11.0769 9.51174 10.8238 9.37257C10.5707 9.22645 10.2473 9.30995 10.1066 9.56045C9.40351 10.7642 9.12929 12.3646 9.30507 14.3199L8.66523 14.6678C5.97226 12.6917 3.34257 12.2811 1.57773 13.5962C0.298039 14.5495 -0.180086 16.2265 0.403507 17.6807C1.00116 19.1628 2.50585 20.0674 4.58007 20.2622L1.52148 21.9461C0.769132 22.3567 0.501945 23.303 0.916789 24.0475L1.99257 25.9541C2.28085 26.4621 2.80819 26.7473 3.35663 26.7473C3.61679 26.7473 3.87694 26.6847 4.11601 26.5525L7.56132 24.6529V33.1559C7.56132 34.1788 8.40507 35.0068 9.43163 35.0068H27.066C28.0996 35.0068 28.9363 34.1788 28.9363 33.1559V21.9949C28.9433 21.299 28.3668 20.7285 27.6637 20.7285ZM10.0855 22.0575L8.5246 19.2811L13.2848 16.6579L14.8457 19.4342L12.4691 20.7493C12.3848 20.7702 12.3074 20.8119 12.2441 20.8746L10.0855 22.0575ZM19.7676 13.0813C19.8449 13.0396 19.9293 13.0187 20.0137 13.0187C20.1894 13.0187 20.3652 13.1092 20.4566 13.2762L21.5254 15.1758C21.659 15.4193 21.5746 15.7255 21.3285 15.8577L15.7668 18.9263L14.2058 16.1499L19.7676 13.0813ZM11.0207 14.5704C11.1613 14.4939 11.316 14.4521 11.4777 14.4521C11.5621 14.4521 11.6535 14.466 11.7379 14.4869C11.984 14.5565 12.1879 14.7165 12.3074 14.9322L12.7715 15.7463L8.01132 18.3696L7.54726 17.5485C7.45585 17.3885 7.42069 17.2076 7.43476 17.0267C7.43476 17.0197 7.43476 17.0197 7.43476 17.0127C7.44179 16.9571 7.44882 16.8945 7.46991 16.8388C7.54023 16.5952 7.70194 16.4004 7.91991 16.2752L11.0207 14.5704ZM1.38788 17.298C0.973039 16.2821 1.31757 15.0992 2.21054 14.4382C3.50429 13.4779 5.50116 13.7841 7.64569 15.2384L7.3996 15.3706C7.01288 15.5863 6.71054 15.9133 6.54179 16.31C5.84569 16.0943 5.21991 15.976 4.32694 15.8785C4.03866 15.8507 3.77851 16.0525 3.74335 16.3378C3.70819 16.6231 3.91913 16.8805 4.20741 16.9153C5.19179 17.0197 5.77538 17.1519 6.3871 17.3607C6.42226 17.6042 6.4996 17.8477 6.62616 18.0634L7.09023 18.8845L6.51366 19.2046C3.89804 19.4829 1.98554 18.7732 1.38788 17.298ZM3.60273 25.634C3.36366 25.7662 3.04726 25.6758 2.91366 25.4392L1.84491 23.5465C1.71132 23.303 1.79569 22.9968 2.04179 22.8646L6.92148 20.1718C6.93554 20.1648 6.9496 20.1579 6.96366 20.144L7.61054 19.7891L9.17147 22.5654L7.84257 23.296C7.84257 23.296 7.83554 23.296 7.83554 23.303L3.60273 25.634ZM8.61601 33.1489V24.0684L12.7785 21.7722H15.2043V26.3925C15.2043 26.6778 15.4433 26.9143 15.7316 26.9143C16.0199 26.9143 16.259 26.6778 16.259 26.3925V21.7722H20.2387V33.9561H16.259V28.8627C16.259 28.5774 16.0199 28.3408 15.7316 28.3408C15.4433 28.3408 15.2043 28.5774 15.2043 28.8627V33.9561H9.43163C8.98163 33.9561 8.61601 33.5943 8.61601 33.1489ZM27.8887 33.1489C27.8887 33.5943 27.523 33.9561 27.073 33.9561H21.3004V21.7722H27.6637C27.7832 21.7722 27.8887 21.8766 27.8887 21.9949V33.1489Z" fill="#7DD170"/>
<path d="M25.73 9.03872C25.737 9.10135 26.405 15.4821 24.1479 17.9035C23.9511 18.1123 23.9651 18.4463 24.1761 18.6411C24.2745 18.7316 24.4081 18.7803 24.5347 18.7803C24.6753 18.7803 24.8159 18.7246 24.9214 18.6133C27.5019 15.8439 26.8058 9.20572 26.7776 8.92739C26.7495 8.6421 26.4894 8.43336 26.194 8.46815C25.9058 8.48902 25.6948 8.74648 25.73 9.03872Z" fill="#7DD170"/>
<path d="M30.5535 8.25921C29.6605 9.60911 29.3792 10.8198 29.3652 10.8686C29.3019 11.1469 29.4777 11.4252 29.7589 11.4948C29.8011 11.5018 29.8363 11.5087 29.8785 11.5087C30.1175 11.5087 30.3355 11.3417 30.3917 11.1051C30.3917 11.0912 30.6519 10.0057 31.4535 8.80196C32.5082 7.22244 33.9496 6.20653 35.7496 5.78208C36.0308 5.7125 36.2066 5.43417 36.1433 5.15584C36.073 4.87751 35.7917 4.70355 35.5105 4.76618C33.4503 5.25325 31.7417 6.45703 30.5535 8.25921Z" fill="#7DD170"/>
<path d="M19.7324 5.39262C19.7324 5.40653 19.7395 5.43437 19.7324 5.49699L19.6059 7.01389C19.5848 7.17393 19.5566 7.53576 19.852 7.75842C20.1543 7.98805 20.5129 7.84192 20.6676 7.7793L22.0738 7.1948C22.102 7.18785 22.1723 7.18785 22.1934 7.1948L23.6137 7.7793C23.7051 7.81409 23.8598 7.87671 24.0426 7.87671C24.1691 7.87671 24.2957 7.84888 24.4223 7.75146C24.7176 7.5288 24.6824 7.16697 24.6684 7.00693L24.5488 5.49699C24.5418 5.43437 24.5488 5.40653 24.5488 5.39262L25.5754 4.17492C25.6949 4.04272 25.927 3.77135 25.8145 3.42343C25.702 3.06856 25.3363 2.97811 25.1816 2.94331L23.6277 2.56061L22.8121 1.21071C22.7348 1.08546 22.5379 0.751465 22.1441 0.751465C21.7574 0.751465 21.5535 1.08546 21.4762 1.21071L20.6605 2.55365L20.6535 2.56757L19.0926 2.95027C18.9379 2.98506 18.5723 3.07552 18.4668 3.43039C18.3543 3.7783 18.6004 4.05663 18.7059 4.18188L19.7324 5.39262ZM20.9559 3.5626C21.3074 3.4791 21.434 3.30514 21.5465 3.11727L22.1441 2.13616L22.7418 3.13119C22.8473 3.3121 22.9738 3.4791 23.3254 3.5626L24.4785 3.84789L23.7332 4.73158C23.4871 5.01687 23.4801 5.33695 23.4941 5.58049L23.5785 6.63814L22.6012 6.23457C22.327 6.11628 21.9473 6.11628 21.666 6.23457L20.6887 6.63814L20.773 5.58049C20.7871 5.35783 20.7871 5.02383 20.541 4.73854L19.7887 3.84789L20.9559 3.5626Z" fill="#7DD170"/>
<path d="M35.8831 16.1706C35.9956 16.0454 36.2347 15.7671 36.1292 15.4192C36.0167 15.0643 35.6511 14.9738 35.4964 14.939L33.9425 14.5563L33.1199 13.1995C33.0425 13.0742 32.8386 12.7402 32.4519 12.7402C32.0652 12.7402 31.8613 13.0742 31.7839 13.1995L30.9753 14.5424L30.9683 14.5563L29.4144 14.939C29.2597 14.9738 28.8941 15.0643 28.7816 15.4192C28.6691 15.7671 28.9152 16.0454 29.0277 16.1706L30.0472 17.3883C30.0472 17.4023 30.0472 17.4301 30.0472 17.4927L29.9206 19.0096C29.9066 19.1697 29.8714 19.5315 30.1667 19.7541C30.4691 19.9768 30.8206 19.8376 30.9753 19.775L32.3816 19.1905C32.4097 19.1836 32.48 19.1836 32.5081 19.1905L33.9285 19.775C34.0199 19.8098 34.1745 19.8724 34.3574 19.8724C34.4839 19.8724 34.6105 19.8446 34.737 19.7472C35.0324 19.5245 35.0042 19.1627 34.9831 19.0027L34.8566 17.4858C34.8495 17.4231 34.8566 17.3953 34.8566 17.3814L35.8831 16.1706ZM34.048 16.7273C33.8019 17.0126 33.7949 17.3327 33.8089 17.5762L33.8933 18.6339L32.923 18.2303C32.6417 18.119 32.2691 18.119 31.9949 18.2303L31.0175 18.6339L31.1019 17.5762C31.123 17.3327 31.1089 17.0126 30.8699 16.7343L30.1245 15.8436L31.2847 15.5583C31.6363 15.4748 31.7628 15.3009 31.8683 15.12L32.466 14.1319L33.0425 15.0782L33.0636 15.113C33.1691 15.2939 33.2956 15.4679 33.6472 15.5583L34.8003 15.8436L34.048 16.7273Z" fill="#7DD170"/>
<path d="M30.5323 5.21869C31.9878 5.21869 33.1691 4.0497 33.1691 2.60934C33.1691 1.16899 31.9878 0 30.5323 0C29.0769 0 27.8956 1.16899 27.8956 2.60934C27.8956 4.0497 29.0769 5.21869 30.5323 5.21869ZM30.5323 1.04374C31.4042 1.04374 32.1144 1.74652 32.1144 2.60934C32.1144 3.47217 31.4042 4.17495 30.5323 4.17495C29.6605 4.17495 28.9503 3.47217 28.9503 2.60934C28.9503 1.74652 29.6605 1.04374 30.5323 1.04374Z" fill="#7DD170"/>
</g>

</svg>
