<svg width="31" height="35" viewBox="0 0 31 35" fill="none" xmlns="http://www.w3.org/2000/svg">
<path d="M21.435 12.0991C21.9329 11.812 22.267 11.2787 22.267 10.6635V9.47401C22.267 8.56481 21.5305 7.81967 20.6167 7.81967H20.1325C20.037 7.51205 19.8665 7.08137 19.5528 6.66437C19.3823 6.43878 19.0618 6.39093 18.8368 6.56183C18.6117 6.73273 18.564 7.05403 18.7345 7.27962C18.8709 7.46419 18.9732 7.64877 19.0414 7.81967H10.06C10.1145 7.68978 10.1895 7.55306 10.2782 7.4095C10.6942 6.77375 11.3421 6.39776 12.2013 6.29522C13.0469 6.27471 13.7289 5.58427 13.7289 4.72975C13.7289 4.23755 13.5857 3.75903 13.3061 3.34886C13.1424 3.10276 13.0538 2.81565 13.0538 2.51486C13.0538 2.09102 13.2243 1.70136 13.5311 1.41425C13.838 1.12713 14.2404 0.983572 14.6564 1.01775C15.4065 1.07244 16.0135 1.70136 16.0476 2.45333C16.0612 2.77463 15.9726 3.08909 15.7952 3.3557C15.5225 3.75903 15.3792 4.23755 15.3792 4.72975C15.3792 5.58427 16.0612 6.27471 16.9068 6.29522C16.9614 6.30206 17.0228 6.30889 17.0773 6.32256C17.3569 6.37042 17.6161 6.17901 17.6638 5.89873C17.7115 5.61845 17.5206 5.35867 17.241 5.31082C17.1592 5.29715 17.0773 5.28348 16.9955 5.27664C16.975 5.27664 16.9546 5.27664 16.9409 5.27664C16.6409 5.27664 16.4022 5.03738 16.4022 4.73659C16.4022 4.44947 16.484 4.16919 16.6477 3.93677C16.9478 3.49242 17.0978 2.96604 17.0773 2.42599C17.0296 1.13397 16.0203 0.0948788 14.7382 0.00600957C14.029 -0.0418431 13.3607 0.19742 12.8424 0.675947C12.3309 1.15447 12.0445 1.82441 12.0445 2.52169C12.0445 3.02757 12.1945 3.51293 12.4741 3.92993C12.6378 4.16919 12.7196 4.44947 12.7196 4.73659C12.7196 5.03738 12.4809 5.27664 12.1809 5.27664C12.1604 5.27664 12.1399 5.27664 12.1263 5.27664C10.1418 5.50223 9.26208 6.85578 8.98248 7.81967H8.50511C7.5981 7.81967 6.85477 8.55797 6.85477 9.47401V10.6635C6.85477 11.2787 7.18893 11.812 7.68676 12.0991L6.98434 13.1245C6.48651 13.8559 6.22055 14.7105 6.22055 15.5992V24.8279C6.22055 25.1082 6.45241 25.3406 6.73202 25.3406C7.01162 25.3406 7.24349 25.1082 7.24349 24.8279V15.5992C7.24349 14.9224 7.44807 14.2661 7.82997 13.7056L8.77789 12.3178H20.3575L21.3055 13.7056C21.6874 14.2661 21.8919 14.9224 21.8919 15.5992V32.6826C21.8919 33.3935 21.3123 33.9677 20.6099 33.9677H8.51193C7.80269 33.9677 7.22985 33.3867 7.22985 32.6826V27.2068C7.22985 26.9266 6.99798 26.6941 6.71838 26.6941C6.43877 26.6941 6.20691 26.9266 6.20691 27.2068V32.6894C6.20691 33.9677 7.24349 35 8.51193 35H20.5894C21.8647 35 22.8944 33.9609 22.8944 32.6894V15.5992C22.8944 14.7105 22.6285 13.8559 22.1306 13.1245L21.435 12.0991ZM21.2441 10.6635C21.2441 11.0121 20.9645 11.2924 20.6167 11.2924H20.6099H8.49147H8.48465C8.13685 11.2924 7.85725 11.0121 7.85725 10.6635V9.47401C7.85725 9.12537 8.13685 8.84509 8.48465 8.84509H20.6167C20.9645 8.84509 21.2441 9.12537 21.2441 9.47401V10.6635Z" fill="#01C5C5"/>
<path d="M9.37805 17.7046H11.158C11.4376 17.7046 11.6694 17.4722 11.6694 17.1919C11.6694 16.9116 11.4376 16.6792 11.158 16.6792H9.37805C9.09844 16.6792 8.86658 16.9116 8.86658 17.1919C8.86658 17.4722 9.09162 17.7046 9.37805 17.7046Z" fill="#01C5C5"/>
<path d="M9.37805 20.6851H12.781C13.0606 20.6851 13.2925 20.4527 13.2925 20.1724C13.2925 19.8921 13.0606 19.6597 12.781 19.6597H9.37805C9.09844 19.6597 8.86658 19.8921 8.86658 20.1724C8.86658 20.4527 9.09162 20.6851 9.37805 20.6851Z" fill="#01C5C5"/>
<path d="M9.37805 23.6592H11.158C11.4376 23.6592 11.6694 23.4268 11.6694 23.1465C11.6694 22.8662 11.4376 22.6338 11.158 22.6338H9.37805C9.09844 22.6338 8.86658 22.8662 8.86658 23.1465C8.86658 23.4268 9.09162 23.6592 9.37805 23.6592Z" fill="#01C5C5"/>
<path d="M9.37805 26.6328H12.781C13.0606 26.6328 13.2925 26.4004 13.2925 26.1201C13.2925 25.8398 13.0606 25.6074 12.781 25.6074H9.37805C9.09844 25.6074 8.86658 25.8398 8.86658 26.1201C8.86658 26.4004 9.09162 26.6328 9.37805 26.6328Z" fill="#01C5C5"/>
<path d="M9.37805 29.6133H11.158C11.4376 29.6133 11.6694 29.3809 11.6694 29.1006C11.6694 28.8203 11.4376 28.5879 11.158 28.5879H9.37805C9.09844 28.5879 8.86658 28.8203 8.86658 29.1006C8.86658 29.3809 9.09162 29.6133 9.37805 29.6133Z" fill="#01C5C5"/>
<path d="M26.2293 4.98937C26.4544 4.46983 26.8908 3.77255 27.6955 3.38973C27.9547 3.26668 28.1115 3.01374 28.1115 2.72663C28.1115 2.43951 27.9479 2.18657 27.6955 2.06352C26.8908 1.6807 26.4544 0.983421 26.2293 0.463878C26.1134 0.19727 25.8474 0.0195312 25.561 0.0195312C25.2746 0.0195312 25.0086 0.190434 24.8927 0.463878C24.6677 0.983421 24.2312 1.6807 23.4265 2.06352C23.1673 2.18657 23.0105 2.43951 23.0105 2.72663C23.0105 3.01374 23.1742 3.26668 23.4265 3.38973C24.2312 3.77255 24.6677 4.46983 24.8927 4.98937C25.0086 5.25598 25.2746 5.43372 25.561 5.43372C25.8474 5.43372 26.1134 5.25598 26.2293 4.98937ZM24.3335 2.72663C24.8995 2.35064 25.2951 1.85844 25.561 1.40042C25.827 1.85844 26.2225 2.3438 26.7885 2.72663C26.2225 3.10261 25.827 3.59481 25.561 4.05283C25.2951 3.59481 24.8995 3.10261 24.3335 2.72663Z" fill="#01C5C5"/>
<path d="M5.68186 6.37749C4.87715 5.99467 4.4407 5.29739 4.21565 4.77784C4.09972 4.51123 3.83376 4.3335 3.54733 4.3335C3.26091 4.3335 2.99495 4.5044 2.87901 4.77784C2.64715 5.29739 2.21751 5.99467 1.40598 6.37749C1.15366 6.50054 0.98999 6.75348 0.98999 7.04059C0.98999 7.32771 1.15366 7.58064 1.40598 7.70369C2.2107 8.08651 2.64715 8.7838 2.87219 9.30334C2.98813 9.56995 3.25409 9.74769 3.54051 9.74769C3.82694 9.74769 4.0929 9.57678 4.20883 9.30334C4.43388 8.7838 4.87033 8.08651 5.67504 7.70369C5.93419 7.58064 6.09104 7.32771 6.09104 7.04059C6.09786 6.75348 5.94101 6.50054 5.68186 6.37749ZM3.54733 8.35996C3.28137 7.90194 2.88583 7.41658 2.31981 7.03376C2.88583 6.65777 3.28137 6.16557 3.54733 5.70755C3.8133 6.16557 4.20883 6.65093 4.77486 7.03376C4.20883 7.41658 3.8133 7.90194 3.54733 8.35996Z" fill="#01C5C5"/>
<path d="M29.7413 8.57134C28.9366 8.18852 28.5002 7.49123 28.2751 6.97169C28.1592 6.70508 27.8932 6.52734 27.6068 6.52734C27.3136 6.52734 27.0544 6.69825 26.9385 6.97169C26.7134 7.49123 26.277 8.18852 25.4723 8.57134C25.2131 8.69439 25.0563 8.94732 25.0563 9.23444C25.0563 9.52155 25.2199 9.77449 25.4723 9.89754C26.277 10.2804 26.7134 10.9776 26.9385 11.4972C27.0544 11.7638 27.3204 11.9415 27.6068 11.9415C27.9 11.9415 28.1592 11.7706 28.2751 11.4972C28.5002 10.9776 28.9366 10.2804 29.7413 9.89754C30.0005 9.77449 30.1573 9.52155 30.1573 9.23444C30.1573 8.94732 30.0005 8.68755 29.7413 8.57134ZM27.6068 10.5538C27.3408 10.0958 26.9453 9.61042 26.3793 9.2276C26.9453 8.85162 27.3408 8.35942 27.6068 7.9014C27.8728 8.35942 28.2683 8.84478 28.8343 9.2276C28.2683 9.61042 27.8728 10.0958 27.6068 10.5538Z" fill="#01C5C5"/>
</svg>
