<svg width="35" height="34" viewBox="0 0 35 34" fill="none" xmlns="http://www.w3.org/2000/svg">
<path d="M11.3794 11.6093C11.2267 11.4566 11.0076 11.3902 10.7951 11.4234C10.5826 11.4566 10.4033 11.596 10.3104 11.7886L1.21335 30.7861C1.2067 30.7994 1.2067 30.806 1.20006 30.8193C0.814936 31.7423 0.98758 32.6852 1.6516 33.3492C2.08321 33.7808 2.6277 33.9999 3.21203 33.9999C3.53076 33.9999 3.86277 33.9335 4.18814 33.7941C4.20142 33.7875 4.20806 33.7875 4.22134 33.7808L23.2122 24.6772C23.4048 24.5842 23.5442 24.4049 23.5774 24.1924C23.6106 23.9799 23.5442 23.7608 23.3915 23.6081L11.3794 11.6093ZM11.1072 13.2162L17.827 19.9361C15.2307 19.8298 12.3754 18.8272 9.32098 16.9547L11.1072 13.2162ZM3.65028 32.579C3.4046 32.6786 2.95307 32.7782 2.58122 32.4129C2.20937 32.0411 2.31561 31.5896 2.41521 31.3439L4.20806 27.6055C5.48961 28.6812 6.78444 29.6374 8.07927 30.4541L3.65028 32.579ZM16.665 26.3372C15.8682 26.138 15.0448 25.8657 14.2081 25.5205C13.8695 25.381 13.4777 25.5404 13.3383 25.879C13.1988 26.2177 13.3582 26.6028 13.6968 26.7489C14.0886 26.9083 14.4804 27.061 14.8721 27.1938L9.50026 29.7702C7.93982 28.8405 6.35947 27.6918 4.79903 26.3638L6.65827 22.4859C7.22933 22.9374 7.80038 23.3624 8.37143 23.7608C8.48432 23.8405 8.61712 23.8803 8.74992 23.8803C8.95577 23.8803 9.16825 23.7807 9.29442 23.5948C9.5069 23.296 9.43386 22.8777 9.13505 22.6718C8.50424 22.2336 7.87342 21.7555 7.24925 21.2508L8.74328 18.1432C12.1497 20.215 15.3569 21.2575 18.2918 21.2575C18.5774 21.2575 18.8562 21.2442 19.1351 21.2309L21.7846 23.8803L16.665 26.3372Z" fill="#FBCC55"/>
<path d="M13.8893 7.73814C14.0155 7.85102 14.2213 8.03694 14.2943 8.14983C14.2014 8.25607 14.0155 8.42207 13.8827 8.5416C13.4577 8.92672 13.2054 9.45794 13.1788 10.0356C13.1522 10.6133 13.3514 11.1645 13.7366 11.5894C14.1217 12.0144 14.6529 12.2667 15.2306 12.2933C15.2638 12.2933 15.297 12.2933 15.3369 12.2933C15.8747 12.2933 16.386 12.0941 16.7844 11.7289C17.1363 11.4101 17.5281 11.0516 17.8933 10.5137C18.3847 9.78994 18.6237 9.01305 18.6237 8.14318C18.6237 6.23082 17.6476 5.34104 16.7778 4.5575C16.6516 4.44462 16.4458 4.25869 16.3727 4.14581C16.4657 4.04621 16.6516 3.87356 16.7844 3.75404C17.6609 2.95722 17.7273 1.58935 16.9305 0.712849C16.5454 0.281238 16.0141 0.0289124 15.4365 0.00235176C14.8654 -0.0242089 14.3076 0.174996 13.8827 0.560125C13.5307 0.878853 13.139 1.23742 12.7738 1.77527C12.2824 2.49905 12.0433 3.27595 12.0433 4.14581C12.0433 6.06482 13.0261 6.9546 13.8893 7.73814ZM15.297 10.9586C15.0779 10.9453 14.872 10.8524 14.726 10.6864C14.5799 10.5204 14.5002 10.3145 14.5135 10.0888C14.5268 9.86963 14.6197 9.66378 14.7857 9.5177C14.9517 9.36497 15.1111 9.21889 15.2439 9.07945L15.8747 9.7169C16.1602 10.0024 16.1602 10.4606 15.888 10.7528C15.722 10.8989 15.5161 10.9719 15.297 10.9586ZM17.3023 8.14318C17.3023 8.51503 17.2426 8.85368 17.1164 9.17905C17.0301 9.03961 16.9305 8.91344 16.8176 8.79392L15.1111 7.06748C15.0048 6.96124 14.8986 6.86163 14.7924 6.76203C14.0088 6.0449 13.3846 5.48712 13.3846 4.15909C13.3846 3.78724 13.4444 3.44859 13.5706 3.12323C13.6569 3.26267 13.7565 3.38883 13.8694 3.50835L15.5759 5.2348C15.5759 5.2348 15.5759 5.2348 15.5825 5.2348C15.6888 5.34104 15.795 5.44064 15.9013 5.54024C16.6848 6.25074 17.3023 6.81515 17.3023 8.14318ZM15.3369 1.33038C15.3501 1.33038 15.3634 1.33038 15.3767 1.33038C15.5958 1.34366 15.8017 1.43663 15.9477 1.60263C16.2532 1.94128 16.2333 2.46585 15.8946 2.7713C15.7286 2.92402 15.5693 3.06346 15.4365 3.20955L14.8056 2.57209C14.5201 2.28657 14.5201 1.8284 14.7924 1.53623C14.9451 1.40343 15.1376 1.33038 15.3369 1.33038Z" fill="#FBCC55"/>
<path d="M26.6717 9.26525C27.0569 9.65038 27.5681 9.84959 28.0794 9.84959C28.5907 9.84959 29.102 9.65702 29.4872 9.26525L30.4234 8.32899C31.2003 7.55209 31.2003 6.29046 30.4234 5.51356L29.4872 4.5773C28.7103 3.8004 27.4486 3.8004 26.6717 4.5773L25.7355 5.51356C25.3636 5.88541 25.1511 6.39007 25.1511 6.92128C25.1511 7.45249 25.357 7.95714 25.7355 8.32899L26.6717 9.26525ZM26.6717 6.44319L27.608 5.50692C27.7341 5.38076 27.9002 5.31436 28.0794 5.31436C28.2587 5.31436 28.4247 5.38076 28.5509 5.50692L29.4872 6.44319C29.6133 6.56935 29.6797 6.73535 29.6797 6.91464C29.6797 7.09392 29.6133 7.25993 29.4872 7.38609L28.5509 8.32235C28.4247 8.44851 28.2587 8.51491 28.0794 8.51491C27.9002 8.51491 27.7341 8.44851 27.608 8.32235L26.6717 7.38609C26.5456 7.25993 26.4792 7.09392 26.4792 6.91464C26.4792 6.73535 26.5456 6.56935 26.6717 6.44319Z" fill="#FBCC55"/>
<path d="M34.288 18.0634C33.863 17.6782 33.3119 17.479 32.7342 17.5056C32.1565 17.5321 31.6319 17.7845 31.2402 18.2094C31.1206 18.3422 30.9546 18.5282 30.8484 18.6145C30.7355 18.5348 30.5562 18.3356 30.4367 18.2094C29.6532 17.3462 28.7634 16.3701 26.851 16.3701C25.9811 16.3701 25.2043 16.6092 24.4805 17.1005C23.9426 17.4657 23.5841 17.8642 23.2653 18.2094C23.2587 18.2161 23.252 18.2294 23.2388 18.236C22.8669 18.661 22.6743 19.1988 22.7009 19.7632C22.7275 20.3409 22.9798 20.8655 23.4048 21.2573C24.2813 22.0541 25.6491 21.9943 26.4526 21.1112C26.5721 20.9784 26.7381 20.7925 26.8444 20.7061C26.9573 20.7858 27.1365 20.985 27.2561 21.1112C28.0396 21.9744 28.9294 22.9572 30.8417 22.9572C31.7116 22.9572 32.4885 22.7181 33.2123 22.2267C33.7501 21.8615 34.1087 21.4631 34.4274 21.1178C35.2309 20.228 35.1645 18.8602 34.288 18.0634ZM32.2229 19.0992C32.369 18.9332 32.5748 18.8403 32.7939 18.827C33.0131 18.8203 33.2256 18.8934 33.3916 19.0395C33.7236 19.3449 33.7501 19.8562 33.458 20.1948C33.1724 20.4671 32.7076 20.4671 32.4221 20.1816L31.7846 19.5508C31.9307 19.4246 32.0768 19.2652 32.2229 19.0992ZM25.4699 20.2148C25.3238 20.3808 25.1179 20.4737 24.8988 20.487C24.6797 20.5003 24.4672 20.4206 24.3012 20.2745C24.1352 20.1284 24.0422 19.9226 24.0289 19.7035C24.0157 19.491 24.0887 19.2851 24.2348 19.1191C24.5203 18.8469 24.9785 18.8469 25.2707 19.1324L25.9081 19.7632C25.7687 19.8894 25.6226 20.0488 25.4699 20.2148ZM28.2388 20.2148C28.1392 20.1085 28.0396 19.9956 27.9334 19.8894L26.2069 18.1829C26.0874 18.0634 25.9546 17.9638 25.8218 17.8841C26.1472 17.7579 26.4858 17.6981 26.8576 17.6981C28.1857 17.6981 28.7501 18.3223 29.4606 19.1059C29.5602 19.2121 29.6598 19.325 29.766 19.4246C29.766 19.4246 29.766 19.4246 29.7727 19.4312L31.4991 21.1378C31.6186 21.2573 31.7514 21.3569 31.8842 21.4366C31.5589 21.5627 31.2202 21.6225 30.8484 21.6225C29.5137 21.6225 28.9493 20.9983 28.2388 20.2148Z" fill="#FBCC55"/>
<path d="M32.4818 3.17618C32.847 3.17618 33.1458 2.87737 33.1458 2.51216C33.1458 2.14695 32.847 1.84814 32.4818 1.84814C32.1166 1.84814 31.8177 2.14695 31.8177 2.51216C31.8177 2.87737 32.1166 3.17618 32.4818 3.17618Z" fill="#FBCC55"/>
<path d="M23.4115 2.69864C23.7767 2.69864 24.0755 2.39983 24.0755 2.03462C24.0755 1.66941 23.7767 1.37061 23.4115 1.37061C23.0462 1.37061 22.7474 1.66941 22.7474 2.03462C22.7474 2.39983 23.0396 2.69864 23.4115 2.69864Z" fill="#FBCC55"/>
<path d="M21.3331 8.72061C21.6983 8.72061 21.9971 8.4218 21.9971 8.05659C21.9971 7.69138 21.6983 7.39258 21.3331 7.39258C20.9679 7.39258 20.6691 7.69138 20.6691 8.05659C20.6691 8.4218 20.9679 8.72061 21.3331 8.72061Z" fill="#FBCC55"/>
<path d="M20.8283 14.8363C21.1935 14.8363 21.4923 14.5375 21.4923 14.1723C21.4923 13.8071 21.1935 13.5083 20.8283 13.5083C20.4631 13.5083 20.1643 13.8071 20.1643 14.1723C20.1643 14.5375 20.4565 14.8363 20.8283 14.8363Z" fill="#FBCC55"/>
<path d="M32.2959 11.5825C32.2959 11.9477 32.5947 12.2465 32.9599 12.2465C33.3251 12.2465 33.6239 11.9477 33.6239 11.5825C33.6239 11.2173 33.3251 10.9185 32.9599 10.9185C32.5947 10.9185 32.2959 11.2173 32.2959 11.5825Z" fill="#FBCC55"/>
<path d="M26.2733 13.6611C26.2733 14.0263 26.5721 14.3251 26.9373 14.3251C27.3025 14.3251 27.6013 14.0263 27.6013 13.6611C27.6013 13.2959 27.3025 12.9971 26.9373 12.9971C26.5721 12.9971 26.2733 13.2959 26.2733 13.6611Z" fill="#FBCC55"/>
<path d="M11.2797 24.1587C10.9145 24.1587 10.6157 24.4575 10.6157 24.8227C10.6157 25.1879 10.9145 25.4867 11.2797 25.4867C11.6449 25.4867 11.9438 25.1879 11.9438 24.8227C11.9438 24.4575 11.6449 24.1587 11.2797 24.1587Z" fill="#FBCC55"/>
</svg>
