<svg width="40" height="37" viewBox="0 0 30 37" fill="none" xmlns="http://www.w3.org/2000/svg">
<g clip-path="url(#clip0)">
<path d="M29.1361 21.6367C29.0936 21.4343 28.9732 21.2681 28.8032 21.1525L19.1271 14.9088C18.8792 14.7498 18.5533 14.822 18.3975 15.075C18.2416 15.3279 18.3125 15.6603 18.5604 15.8193L27.9815 21.8968L27.0394 23.4216L15.4507 15.9566C14.9691 15.6459 14.3528 15.6459 13.8711 15.9566L2.28243 23.4289L1.34032 21.9041L14.1828 13.6152C14.4732 13.4273 14.8415 13.4273 15.1249 13.6152L16.4566 14.4752C16.7045 14.6341 17.0304 14.5619 17.1862 14.309C17.342 14.056 17.2712 13.7236 17.0233 13.5646L15.6916 12.7047C15.0611 12.3 14.2465 12.3 13.609 12.7047L10.7827 14.5258V12.4879L11.491 12.0326C11.7744 11.8519 11.9444 11.534 11.9444 11.1871V9.22145C11.9444 8.93962 11.7956 8.67946 11.5548 8.54938C11.3139 8.41208 11.0164 8.42653 10.7898 8.57106L4.46416 12.6541C4.18082 12.8347 4.01081 13.1527 4.01081 13.4996V15.4652C4.01081 16.0722 4.66958 16.4408 5.16543 16.1156L5.61878 15.8265V17.8644L0.511545 21.1525C0.157368 21.3765 0.0511153 21.8535 0.277789 22.2148C1.53158 24.1154 1.50324 24.4912 2.02034 24.6068C2.21868 24.6502 2.41702 24.614 2.58702 24.5056L4.85376 23.0459V26.4496C4.85376 26.7459 5.0946 26.9916 5.38502 26.9916C5.67545 26.9916 5.91629 26.7459 5.91629 26.4496V22.3593L14.4307 16.8672C14.5653 16.7804 14.7424 16.7804 14.877 16.8672L23.3914 22.3593V35.9164H18.1637V28.9211C18.1637 28.4224 17.7671 28.0177 17.2783 28.0177H12.0223C11.5335 28.0177 11.1369 28.4224 11.1369 28.9211V35.9164H5.91629V28.9789C5.91629 28.6826 5.67545 28.4369 5.38502 28.4369C5.0946 28.4369 4.85376 28.6826 4.85376 28.9789V36.097C4.85376 36.5957 5.25043 37.0004 5.7392 37.0004H23.5756C24.0643 37.0004 24.461 36.5957 24.461 36.097V23.0531L26.7277 24.5129C27.0819 24.7369 27.5494 24.6357 27.769 24.2744L29.044 22.222C29.1503 22.0414 29.1857 21.839 29.1361 21.6367ZM5.06626 14.8943V13.5429L10.8818 9.79235V11.1437L5.06626 14.8943ZM6.67423 15.14L9.72015 13.1744V15.2123L6.67423 17.1779V15.14ZM12.2065 29.1017H17.1083V35.9164H12.2065V29.1017Z" fill="#FBA455"/>
<path d="M14.6573 26.6807C16.4353 26.6807 17.8803 25.2064 17.8803 23.3926C17.8803 21.5787 16.4353 20.1045 14.6573 20.1045C12.8794 20.1045 11.4343 21.5787 11.4343 23.3926C11.4343 25.2064 12.8794 26.6807 14.6573 26.6807ZM12.5677 23.9346H14.1261V25.5244C13.361 25.3293 12.7589 24.715 12.5677 23.9346ZM15.1886 25.5316V23.9418H16.747C16.5557 24.715 15.9536 25.3293 15.1886 25.5316ZM16.747 22.8506H15.1886V21.2607C15.9536 21.4631 16.5557 22.0773 16.747 22.8506ZM14.1261 21.2607V22.8506H12.5677C12.7589 22.0773 13.361 21.4631 14.1261 21.2607Z" fill="#FBA455"/>
<path d="M11.4768 3.90251C12.0435 4.47341 12.4898 4.75525 12.8156 4.95759C12.9998 5.07322 13.2123 5.13103 13.4177 5.13103C13.6231 5.13103 13.8356 5.07322 14.0198 4.95759C14.3456 4.75525 14.7919 4.47341 15.3586 3.90251C15.989 3.26657 16.2936 2.71013 16.3503 2.1031C16.407 1.51775 16.2015 0.939622 15.7978 0.527708C15.139 -0.137136 14.1119 -0.180495 13.4106 0.419309C12.7164 -0.180495 11.6822 -0.137136 11.0235 0.527708C10.6197 0.939622 10.4143 1.51052 10.4709 2.1031C10.5418 2.71013 10.8464 3.26657 11.4768 3.90251ZM12.2914 1.09138C12.8935 1.09138 12.8156 1.65505 13.4248 1.65505C13.8285 1.65505 13.9915 1.36599 14.0835 1.27927C14.3598 1.02634 14.799 1.03357 15.0611 1.30095C15.2382 1.48161 15.3303 1.73454 15.3019 2.00193C15.2665 2.34157 15.0611 2.68845 14.6219 3.1365C14.1402 3.62068 13.7719 3.85193 13.4744 4.03982C13.446 4.0615 13.4106 4.0615 13.3752 4.03982C13.0777 3.85193 12.7093 3.62068 12.2277 3.1365C11.7885 2.69568 11.576 2.34157 11.5476 2.00193C11.4981 1.52497 11.8168 1.09138 12.2914 1.09138Z" fill="#FBA455"/>
<path d="M3.28824 8.20243C4.04618 8.96122 4.6412 9.337 5.08038 9.60438C5.29997 9.74169 5.54789 9.81396 5.8029 9.81396C6.05082 9.81396 6.29875 9.74169 6.52542 9.60438C6.9646 9.32977 7.55961 8.96122 8.31755 8.20243C9.13924 7.37138 9.543 6.65595 9.61384 5.87548C9.68467 5.13114 9.42967 4.40848 8.91965 3.8954C8.07671 3.04266 6.73084 3.00653 5.85957 3.82313C5.8454 3.83758 5.82415 3.85204 5.80998 3.86649C5.79581 3.85204 5.77456 3.83758 5.7604 3.82313C4.88912 3.00653 3.54325 3.03544 2.70031 3.8954C2.16905 4.40848 1.92112 5.13114 1.99196 5.87548C2.06279 6.65595 2.45947 7.3786 3.28824 8.20243ZM3.42991 4.66141C3.65659 4.43739 3.9541 4.32176 4.2516 4.32176C5.14413 4.32176 5.08746 5.08778 5.78873 5.08778C6.24208 5.08778 6.405 4.76981 6.55375 4.62528C7.00001 4.20614 7.71545 4.22782 8.14755 4.66141C8.43089 4.95048 8.57256 5.35516 8.53006 5.7743C8.48047 6.28739 8.17588 6.80048 7.54545 7.43641C6.87959 8.10849 6.3625 8.43368 5.95165 8.68661C5.85248 8.75165 5.72498 8.75165 5.61873 8.68661C5.20788 8.42645 4.69078 8.10849 4.02493 7.43641C3.3945 6.80048 3.08991 6.28739 3.04032 5.7743C3.0049 5.35516 3.14657 4.95048 3.42991 4.66141Z" fill="#FBA455"/>
</g>

</svg>
